<?xml version="1.0" encoding="UTF-8" standalone="no"?>
<!-- Created with Inkscape (http://www.inkscape.org/) -->

<svg
   version="1.1"
   id="svg824"
   xml:space="preserve"
   width="726.47906"
   height="298.32611"
   viewBox="0 0 726.47907 298.32611"
   sodipodi:docname="IESF- VF-RVB.svg"
   inkscape:version="1.1.2 (b8e25be833, 2022-02-05)"
   xmlns:inkscape="http://www.inkscape.org/namespaces/inkscape"
   xmlns:sodipodi="http://sodipodi.sourceforge.net/DTD/sodipodi-0.dtd"
   xmlns="http://www.w3.org/2000/svg"
   xmlns:svg="http://www.w3.org/2000/svg"><defs
     id="defs828"><clipPath
       clipPathUnits="userSpaceOnUse"
       id="clipPath838"><path
         d="M 0,666 H 644 V 0 H 0 Z"
         id="path836" /></clipPath></defs><sodipodi:namedview
     id="namedview826"
     pagecolor="#ffffff"
     bordercolor="#666666"
     borderopacity="1.0"
     inkscape:pageshadow="2"
     inkscape:pageopacity="0.0"
     inkscape:pagecheckerboard="0"
     showgrid="false"
     inkscape:zoom="0.1767767"
     inkscape:cx="-5.6568542"
     inkscape:cy="11.313708"
     inkscape:window-width="1920"
     inkscape:window-height="1057"
     inkscape:window-x="-8"
     inkscape:window-y="-8"
     inkscape:window-maximized="1"
     inkscape:current-layer="g830" /><g
     id="g830"
     inkscape:groupmode="layer"
     inkscape:label="IESF- VF-RVB"
     transform="matrix(1.3333333,0,0,-1.3333333,-42.026735,606.18604)"><g
       id="g1601"><path
         d="m 280.77685,335.01224 v 69.6 c 0,1.205 -0.279,2.127 -0.84,2.769 -0.56,0.643 -1.562,1.164 -3.002,1.567 v 1.925 h 25.58 v -1.925 c -1.439,-0.362 -2.443,-0.875 -3.002,-1.536 -0.56,-0.664 -0.84,-1.595 -0.84,-2.8 v -69.6 c 0,-1.246 0.29,-2.197 0.872,-2.861 0.58,-0.662 1.57,-1.174 2.97,-1.535 v -1.926 h -25.58 v 1.926 c 1.44,0.402 2.442,0.921 3.002,1.566 0.561,0.641 0.84,1.584 0.84,2.83"
         style="fill:#0043ff;fill-opacity:1;fill-rule:nonzero;stroke:none"
         id="path842" /><path
         d="m 337.73585,364.75444 v -22.518 h 52.727 c 1.201,0 2.121,0.28 2.761,0.842 0.641,0.563 1.16,1.567 1.563,3.012 h 1.92 v -21.256 h -1.92 c -0.403,1.447 -0.922,2.449 -1.563,3.012 -0.64,0.562 -1.56,0.844 -2.761,0.844 h -74.465 v 1.925 c 1.441,0.403 2.443,0.922 3.004,1.567 0.558,0.64 0.839,1.584 0.839,2.83 v 69.541 c 0,1.242 -0.281,2.185 -0.839,2.828 -0.561,0.643 -1.563,1.164 -3.004,1.566 v 1.926 h 73.023 c 1.201,0 2.121,0.287 2.762,0.86 0.641,0.572 1.16,1.572 1.56,2.994 h 1.924 v -21.254 h -1.924 c -0.4,1.427 -0.919,2.426 -1.56,2.998 -0.641,0.57 -1.561,0.855 -2.762,0.855 h -51.285 v -19.506 h 33.27 c 1.201,0 2.121,0.28 2.761,0.842 0.641,0.561 1.16,1.567 1.563,3.01 h 1.922 v -20.772 h -1.922 c -0.403,1.407 -0.922,2.399 -1.563,2.981 -0.64,0.582 -1.56,0.873 -2.761,0.873 z"
         style="fill:#0043ff;fill-opacity:1;fill-rule:nonzero;stroke:none"
         id="path846" /><path
         d="m 484.47415,403.91264 -9.789,-19.35 -1.682,0.963 c 0.039,0.401 0.061,0.723 0.061,0.963 0,1.365 -1.162,2.83 -3.485,4.397 -7.125,4.976 -15.492,7.464 -25.101,7.464 -4.242,0 -7.986,-0.519 -11.229,-1.562 -2.363,-0.803 -4.273,-2.006 -5.736,-3.609 -1.461,-1.606 -2.191,-3.348 -2.191,-5.233 0,-3.088 1.863,-5.193 5.586,-6.314 1.921,-0.563 6.043,-1.164 12.369,-1.805 l 9.427,-0.963 c 5.606,-0.603 10.141,-1.424 13.604,-2.467 3.463,-1.043 6.533,-2.507 9.217,-4.392 2.722,-1.965 4.875,-4.553 6.457,-7.76 1.58,-3.209 2.371,-6.637 2.371,-10.289 0,-5.775 -1.861,-10.91 -5.584,-15.4 -3.363,-4.092 -8.588,-7.12 -15.674,-9.084 -5.285,-1.485 -10.951,-2.227 -16.996,-2.227 -10.85,0 -21.559,2.607 -32.127,7.828 -2.242,1.043 -3.582,1.565 -4.021,1.565 -0.524,0 -1.344,-0.442 -2.465,-1.327 l -1.741,0.905 8.889,20.17 1.742,-0.842 v -0.783 c 0,-1.807 0.858,-3.473 2.58,-4.998 2.604,-2.329 6.627,-4.336 12.071,-6.02 5.445,-1.685 10.607,-2.529 15.494,-2.529 5.324,0 9.867,0.902 13.631,2.703 2.082,1 3.744,2.334 4.986,3.996 1.24,1.662 1.861,3.395 1.861,5.199 0,2.723 -1.463,4.666 -4.386,5.828 -2.041,0.801 -6.166,1.543 -12.369,2.223 l -9.249,0.961 c -6.205,0.644 -10.589,1.256 -13.15,1.84 -2.562,0.582 -5.125,1.515 -7.687,2.801 -3.643,1.806 -6.506,4.519 -8.586,8.134 -1.883,3.254 -2.823,6.991 -2.823,11.209 0,6.95 2.379,12.692 7.147,17.233 6.244,5.986 15.611,8.978 28.103,8.978 5.243,0 10.127,-0.535 14.653,-1.601 4.521,-1.071 10.166,-3.035 16.931,-5.895 2.323,-0.93 3.746,-1.392 4.266,-1.392 0.84,0 1.82,0.462 2.941,1.392 z"
         style="fill:#0043ff;fill-opacity:1;fill-rule:nonzero;stroke:none"
         id="path850" /><path
         d="m 517.29445,364.63334 v -29.621 c 0,-1.246 0.289,-2.197 0.871,-2.861 0.578,-0.663 1.57,-1.174 2.971,-1.536 v -1.925 h -25.58 v 1.925 c 1.439,0.403 2.441,0.922 3.002,1.567 0.558,0.64 0.84,1.584 0.84,2.83 v 69.541 c 0,1.242 -0.282,2.185 -0.84,2.828 -0.561,0.643 -1.563,1.164 -3.002,1.566 v 1.926 h 72.541 c 1.201,0 2.121,0.278 2.761,0.83 0.641,0.553 1.161,1.561 1.563,3.024 h 1.922 v -21.254 h -1.922 c -0.402,1.469 -0.922,2.478 -1.563,3.029 -0.64,0.551 -1.56,0.824 -2.761,0.824 h -50.803 v -19.629 h 33.207 c 1.24,0 2.182,0.29 2.824,0.862 0.639,0.572 1.158,1.57 1.561,2.994 h 1.92 v -20.772 h -1.92 c -0.403,1.426 -0.922,2.426 -1.561,2.997 -0.642,0.57 -1.584,0.855 -2.824,0.855 z"
         style="fill:#0043ff;fill-opacity:1;fill-rule:nonzero;stroke:none"
         id="path854" /><path
         d="m 306.04635,437.62754 c 0,-9.393 -7.727,-17.008 -17.26,-17.008 -9.533,0 -17.261,7.615 -17.261,17.008 0,9.395 7.728,17.012 17.261,17.012 9.533,0 17.26,-7.617 17.26,-17.012"
         style="fill:#d20043;fill-opacity:1;fill-rule:nonzero;stroke:none"
         id="path858" /><path
         d="m 271.45265,302.23304 302.811,-0.078 v -1.871 h -302.764 z"
         style="fill:#0043ff;fill-opacity:1;fill-rule:nonzero;stroke:none"
         id="path862" /><path
         d="m 111.18895,316.76034 c 0,0 -9.906,23.672 -17.730005,37.219 -7.825,13.547 -28.442,47.951 -28.442,47.951 0,0 5.543,-15.994 15.047,-35.717 9.504,-19.723 27.129005,-54.971 27.129005,-54.971 z"
         style="fill:#0043ff;fill-opacity:1;fill-rule:nonzero;stroke:none"
         id="path866" /><path
         d="m 111.18895,316.76034 c 0,0 -9.906,23.672 -17.730005,37.219 -7.825,13.547 -23.645,35.617 -23.645,35.617 0,0 1.078,-3.563 10.25,-23.383 9.193,-19.869 27.129005,-54.971 27.129005,-54.971 z"
         style="fill:#e00053;fill-opacity:1;fill-rule:nonzero;stroke:none"
         id="path870" /><path
         d="m 128.35305,454.43614 c 0,0 33.842,-8.43 44.922,-31.773 11.08,-23.342 11.15,-29.926 16.496,-37.668 5.699,-8.256 13.695,-16.239 19.936,-21.094 6.238,-4.858 10.976,-9.264 10.835,-12.301 -0.144,-3.037 -3.791,-7.81 -6.121,-8.846 -2.33,-1.031 -3.937,-2.853 -4.009,-4.373 -0.071,-1.519 3.839,-7.41 3.316,-10.427 -0.52,-3.018 -3.32,-5.932 -3.789,-7.811 -0.467,-1.881 4.307,-5.523 4.166,-8.562 -0.143,-3.038 -6.412,-6.926 -6.645,-11.864 -0.228,-4.931 4.387,-11.996 3.704,-18.429 -0.678,-6.436 -6.747,-14.145 -14.444,-16.065 -7.699,-1.922 -17.152,-0.715 -28.062,-6.293 -10.912,-5.574 -16.737,-11.767 -20.047,-16.709 -3.141,-4.687 -5.834,-7.945 -5.834,-7.945 0,0 5.441,18.767 14.474,24.808 9.051,6.051 22.911,9.954 30.967,11.483 8.061,1.525 14.533,1.601 15.629,8.775 1.096,7.18 -2.635,16.869 -2.457,20.66 0.176,3.793 5.361,8.879 5.484,11.536 0.124,2.656 -4.703,5.166 -4.58,7.822 0.125,2.658 4.84,5.861 5,9.275 0.161,3.416 -3.531,5.873 -3.334,10.047 0.196,4.176 9.897,8.285 9.698,12.098 -0.201,3.816 -12.41,11.234 -23.262,23.156 -10.855,11.916 -11.982,20.338 -16.4,31.578 -4.42,11.238 -10.393,21.785 -18.03,29.371 -7.633,7.584 -27.613,19.551 -27.613,19.551"
         style="fill:#e00053;fill-opacity:1;fill-rule:nonzero;stroke:none"
         id="path874" /><path
         d="m 186.76705,347.05524 c 0,0 -47.445,7.533 -67.396,10.041 -19.946005,2.506 -33.362005,5.889 -33.362005,5.889 0,0 45.332005,-2.321 68.195005,-5.553 22.864,-3.234 32.971,-5.871 32.971,-5.871 z"
         style="fill:#0043ff;fill-opacity:1;fill-rule:nonzero;stroke:none"
         id="path878" /><path
         d="m 188.10495,350.64314 -15.197,-39.133 11.875,39.375 z"
         style="fill:#e00053;fill-opacity:1;fill-rule:nonzero;stroke:none"
         id="path882" /><path
         d="m 137.38815,351.13924 c 0,0 -16.947,-21.633 -31.904,-38.637 -14.959005,-17.004 -25.774005,-29.482 -25.774005,-29.482 0,0 34.545005,23.562 42.869005,37.533 8.327,13.973 14.809,30.586 14.809,30.586"
         style="fill:#0043ff;fill-opacity:1;fill-rule:nonzero;stroke:none"
         id="path886" /><path
         d="m 79.960443,275.73304 c 0,0 24.869007,14.375 34.176007,28.299 9.306,13.924 19.984,39.81 19.984,39.81 0,0 -12.269,-22.074 -24.055,-34.308 -11.785005,-12.237 -36.960007,-28.955 -36.960007,-28.955 z"
         style="fill:#e00053;fill-opacity:1;fill-rule:nonzero;stroke:none"
         id="path890" /><path
         d="m 91.444845,269.65684 c -9.039,0.424 -16.082,1.133 -17.848,2.213 -4.957,3.035 -42.275,67.578 -42.076,76.654 0.213,9.637 31.647,60.326 37.863,63.762 7.034,3.887 76.938005,2.605 81.866005,0.15 4.834,-2.4 21.896,-35.881 36.855,-61.793 l -0.791,-0.267 c -14.687,25.453 -35.916,51.822 -39.633,55.215 -7.164,2.084 -67.808005,2.087 -74.590005,-0.067 -5.47,-4.437 -33.433,-50.072 -33.88,-57.185 0.474,-6.756 32.494,-63.223 38.435,-69.838 7.063,-1.686 59.406005,-2.487 65.164005,-0.932 2.645,1.1 15.891,11.983 25.371,21.182 -6.011,-6.823 -17.541,-26.608 -22.92,-28.471 -3.076,-1.066 -33.488,-1.576 -53.816005,-0.623"
         style="fill:#0043ff;fill-opacity:1;fill-rule:nonzero;stroke:none"
         id="path894" /><path
         d="m 186.76705,347.05524 c 0,0 -47.48,7.266 -67.396,10.041 -7.182,1 -16.307,2.482 -16.307,2.482 0,0 32.715,0.422 55.578,-2.81 22.863,-3.234 29.375,-5.625 29.375,-5.625 z"
         style="fill:#e00053;fill-opacity:1;fill-rule:nonzero;stroke:none"
         id="path898" /><path
         d="m 284.35155,266.73694 c 0,-0.893 -0.161,-1.693 -0.482,-2.398 -0.323,-0.707 -0.774,-1.307 -1.355,-1.799 -0.582,-0.494 -1.272,-0.87 -2.072,-1.13 -0.799,-0.259 -1.672,-0.389 -2.616,-0.389 -0.644,0 -1.252,0.06 -1.823,0.179 -0.571,0.12 -1.08,0.262 -1.526,0.429 -0.446,0.166 -0.823,0.334 -1.129,0.505 -0.307,0.172 -0.517,0.317 -0.631,0.436 -0.114,0.12 -0.197,0.26 -0.249,0.421 -0.052,0.161 -0.078,0.361 -0.078,0.6 0,0.176 0.01,0.321 0.031,0.436 0.021,0.114 0.05,0.208 0.086,0.28 0.036,0.073 0.083,0.122 0.14,0.148 0.057,0.026 0.117,0.039 0.179,0.039 0.146,0 0.351,-0.091 0.615,-0.273 0.265,-0.181 0.608,-0.379 1.028,-0.591 0.421,-0.213 0.924,-0.411 1.511,-0.592 0.586,-0.182 1.269,-0.273 2.048,-0.273 0.633,0 1.215,0.086 1.744,0.257 0.53,0.172 0.987,0.418 1.371,0.74 0.384,0.322 0.683,0.719 0.895,1.192 0.213,0.472 0.32,1.009 0.32,1.612 0,0.623 -0.135,1.157 -0.405,1.604 -0.27,0.446 -0.626,0.838 -1.067,1.175 -0.442,0.338 -0.942,0.644 -1.503,0.919 -0.561,0.275 -1.135,0.551 -1.721,0.826 -0.587,0.275 -1.16,0.573 -1.721,0.896 -0.561,0.321 -1.062,0.697 -1.503,1.128 -0.441,0.431 -0.797,0.937 -1.066,1.519 -0.271,0.582 -0.406,1.272 -0.406,2.071 0,0.779 0.14,1.477 0.421,2.095 0.28,0.618 0.674,1.142 1.184,1.573 0.508,0.431 1.118,0.761 1.829,0.989 0.712,0.229 1.493,0.343 2.345,0.343 0.425,0 0.856,-0.042 1.292,-0.125 0.436,-0.083 0.849,-0.19 1.238,-0.319 0.389,-0.13 0.737,-0.275 1.044,-0.436 0.306,-0.161 0.509,-0.291 0.607,-0.39 0.099,-0.098 0.161,-0.171 0.187,-0.218 0.026,-0.046 0.049,-0.106 0.07,-0.179 0.021,-0.072 0.036,-0.158 0.047,-0.257 0.01,-0.099 0.016,-0.22 0.016,-0.366 0,-0.135 -0.008,-0.257 -0.024,-0.365 -0.016,-0.11 -0.039,-0.203 -0.07,-0.281 -0.031,-0.078 -0.07,-0.138 -0.117,-0.179 -0.047,-0.042 -0.101,-0.062 -0.163,-0.062 -0.115,0 -0.289,0.075 -0.522,0.226 -0.234,0.15 -0.527,0.318 -0.88,0.505 -0.353,0.187 -0.774,0.356 -1.262,0.507 -0.488,0.15 -1.043,0.225 -1.666,0.225 -0.613,0 -1.148,-0.083 -1.604,-0.249 -0.457,-0.166 -0.836,-0.392 -1.137,-0.677 -0.302,-0.286 -0.527,-0.62 -0.678,-1.005 -0.15,-0.384 -0.226,-0.789 -0.226,-1.215 0,-0.623 0.135,-1.157 0.406,-1.604 0.269,-0.446 0.628,-0.84 1.074,-1.183 0.447,-0.343 0.953,-0.652 1.518,-0.927 0.566,-0.275 1.143,-0.55 1.729,-0.825 0.587,-0.276 1.163,-0.571 1.729,-0.888 0.566,-0.317 1.072,-0.691 1.519,-1.121 0.446,-0.432 0.804,-0.935 1.074,-1.511 0.27,-0.576 0.405,-1.259 0.405,-2.048"
         style="fill:#0043ff;fill-opacity:1;fill-rule:nonzero;stroke:none"
         id="path902" /><path
         d="m 299.74515,269.63044 c 0,0.983 -0.092,1.904 -0.276,2.763 -0.183,0.859 -0.487,1.606 -0.91,2.243 -0.423,0.636 -0.985,1.136 -1.686,1.499 -0.7,0.364 -1.568,0.545 -2.602,0.545 -1.025,0 -1.89,-0.19 -2.595,-0.57 -0.705,-0.38 -1.278,-0.891 -1.718,-1.532 -0.441,-0.641 -0.756,-1.389 -0.949,-2.243 -0.192,-0.855 -0.288,-1.756 -0.288,-2.705 0,-1.008 0.087,-1.946 0.263,-2.813 0.175,-0.868 0.472,-1.622 0.89,-2.263 0.419,-0.641 0.979,-1.143 1.68,-1.506 0.7,-0.363 1.576,-0.545 2.628,-0.545 1.042,0 1.918,0.194 2.627,0.583 0.709,0.389 1.282,0.91 1.718,1.564 0.436,0.654 0.748,1.41 0.936,2.269 0.188,0.859 0.282,1.763 0.282,2.711 m 1.666,0.141 c 0,-1.325 -0.152,-2.523 -0.455,-3.596 -0.303,-1.072 -0.758,-1.986 -1.365,-2.743 -0.607,-0.756 -1.371,-1.339 -2.295,-1.749 -0.923,-0.41 -1.999,-0.616 -3.23,-0.616 -1.23,0 -2.288,0.195 -3.173,0.584 -0.884,0.388 -1.61,0.944 -2.179,1.666 -0.568,0.722 -0.987,1.605 -1.256,2.647 -0.269,1.042 -0.403,2.218 -0.403,3.525 0,1.299 0.149,2.478 0.448,3.538 0.299,1.06 0.754,1.963 1.365,2.711 0.611,0.748 1.376,1.327 2.295,1.737 0.918,0.41 1.997,0.615 3.236,0.615 1.205,0 2.248,-0.192 3.128,-0.577 0.88,-0.384 1.609,-0.935 2.186,-1.653 0.576,-0.718 1.004,-1.589 1.282,-2.615 0.277,-1.026 0.416,-2.184 0.416,-3.474"
         style="fill:#0043ff;fill-opacity:1;fill-rule:nonzero;stroke:none"
         id="path906" /><path
         d="m 316.10105,263.54154 c 0,-0.094 -0.004,-0.179 -0.013,-0.256 -0.008,-0.077 -0.021,-0.145 -0.038,-0.205 -0.017,-0.06 -0.041,-0.116 -0.071,-0.167 -0.03,-0.051 -0.085,-0.118 -0.166,-0.199 -0.082,-0.081 -0.259,-0.214 -0.532,-0.397 -0.274,-0.184 -0.618,-0.365 -1.032,-0.545 -0.415,-0.179 -0.891,-0.333 -1.429,-0.461 -0.539,-0.128 -1.133,-0.192 -1.782,-0.192 -1.043,0 -1.987,0.181 -2.833,0.544 -0.846,0.363 -1.566,0.896 -2.16,1.596 -0.594,0.701 -1.051,1.564 -1.372,2.59 -0.32,1.025 -0.48,2.196 -0.48,3.512 0,1.35 0.171,2.561 0.512,3.634 0.342,1.072 0.823,1.983 1.442,2.73 0.62,0.748 1.364,1.32 2.231,1.718 0.868,0.397 1.827,0.596 2.878,0.596 0.495,0 0.976,-0.047 1.442,-0.141 0.465,-0.094 0.895,-0.214 1.288,-0.359 0.393,-0.145 0.746,-0.312 1.058,-0.5 0.311,-0.188 0.525,-0.34 0.64,-0.455 0.116,-0.115 0.188,-0.199 0.218,-0.25 0.031,-0.051 0.054,-0.109 0.071,-0.173 0.017,-0.064 0.03,-0.137 0.039,-0.218 0.008,-0.081 0.012,-0.173 0.012,-0.276 0,-0.119 -0.006,-0.224 -0.019,-0.313 -0.013,-0.09 -0.034,-0.167 -0.064,-0.231 -0.03,-0.064 -0.067,-0.114 -0.109,-0.148 -0.043,-0.034 -0.094,-0.051 -0.154,-0.051 -0.119,0 -0.288,0.088 -0.506,0.263 -0.218,0.175 -0.505,0.369 -0.859,0.583 -0.355,0.213 -0.788,0.408 -1.301,0.584 -0.513,0.174 -1.124,0.262 -1.833,0.262 -0.778,0 -1.492,-0.156 -2.141,-0.468 -0.649,-0.312 -1.207,-0.771 -1.673,-1.378 -0.466,-0.606 -0.828,-1.354 -1.089,-2.243 -0.261,-0.889 -0.391,-1.91 -0.391,-3.064 0,-1.102 0.119,-2.081 0.359,-2.935 0.239,-0.855 0.585,-1.575 1.038,-2.16 0.453,-0.585 1.013,-1.032 1.679,-1.34 0.667,-0.307 1.423,-0.461 2.269,-0.461 0.692,0 1.297,0.087 1.814,0.263 0.517,0.175 0.959,0.369 1.327,0.583 0.367,0.213 0.668,0.408 0.903,0.583 0.235,0.175 0.417,0.263 0.545,0.263 0.052,0 0.094,-0.011 0.128,-0.032 0.034,-0.021 0.062,-0.06 0.084,-0.115 0.021,-0.056 0.038,-0.131 0.051,-0.225 0.013,-0.094 0.019,-0.209 0.019,-0.346"
         style="fill:#0043ff;fill-opacity:1;fill-rule:nonzero;stroke:none"
         id="path910" /><path
         d="m 320.85695,261.54204 c 0,-0.051 -0.013,-0.098 -0.038,-0.141 -0.026,-0.043 -0.069,-0.077 -0.129,-0.103 -0.059,-0.025 -0.138,-0.047 -0.236,-0.064 -0.099,-0.017 -0.225,-0.025 -0.379,-0.025 -0.145,0 -0.269,0.008 -0.371,0.025 -0.103,0.017 -0.184,0.039 -0.244,0.064 -0.06,0.026 -0.103,0.06 -0.128,0.103 -0.026,0.043 -0.038,0.09 -0.038,0.141 v 16.074 c 0,0.051 0.014,0.098 0.044,0.141 0.03,0.043 0.077,0.077 0.141,0.103 0.065,0.026 0.146,0.047 0.244,0.064 0.098,0.017 0.216,0.026 0.352,0.026 0.154,0 0.28,-0.009 0.379,-0.026 0.098,-0.017 0.177,-0.038 0.236,-0.064 0.06,-0.026 0.103,-0.06 0.129,-0.103 0.025,-0.043 0.038,-0.09 0.038,-0.141 z"
         style="fill:#0043ff;fill-opacity:1;fill-rule:nonzero;stroke:none"
         id="path914" /><path
         d="m 332.02195,282.51324 c 0.085,0.094 0.168,0.168 0.25,0.224 0.081,0.056 0.168,0.098 0.263,0.129 0.094,0.029 0.2,0.048 0.32,0.057 0.12,0.008 0.257,0.013 0.411,0.013 0.179,0 0.324,-0.015 0.435,-0.045 0.111,-0.03 0.19,-0.068 0.238,-0.115 0.046,-0.047 0.063,-0.103 0.051,-0.167 -0.013,-0.064 -0.05,-0.13 -0.109,-0.199 l -2.923,-2.807 c -0.085,-0.086 -0.163,-0.152 -0.23,-0.198 -0.069,-0.048 -0.142,-0.084 -0.219,-0.109 -0.076,-0.026 -0.16,-0.043 -0.25,-0.052 -0.089,-0.008 -0.198,-0.013 -0.326,-0.013 -0.146,0 -0.259,0.011 -0.34,0.032 -0.081,0.021 -0.134,0.052 -0.16,0.09 -0.026,0.038 -0.03,0.088 -0.013,0.148 0.017,0.059 0.06,0.128 0.128,0.205 z m 2.577,-20.535 c 0,-0.111 -0.009,-0.21 -0.026,-0.295 -0.017,-0.086 -0.045,-0.158 -0.083,-0.218 -0.039,-0.06 -0.084,-0.105 -0.135,-0.135 -0.051,-0.03 -0.107,-0.045 -0.166,-0.045 h -7.769 c -0.153,0 -0.312,0.058 -0.474,0.173 -0.162,0.116 -0.243,0.327 -0.243,0.635 v 14.972 c 0,0.308 0.081,0.519 0.243,0.635 0.162,0.115 0.321,0.172 0.474,0.172 h 7.653 c 0.06,0 0.116,-0.014 0.167,-0.044 0.051,-0.03 0.094,-0.075 0.128,-0.135 0.034,-0.06 0.059,-0.135 0.077,-0.224 0.017,-0.09 0.025,-0.195 0.025,-0.314 0,-0.111 -0.008,-0.21 -0.025,-0.295 -0.018,-0.086 -0.043,-0.156 -0.077,-0.212 -0.034,-0.055 -0.077,-0.098 -0.128,-0.128 -0.051,-0.03 -0.107,-0.045 -0.167,-0.045 h -6.807 v -5.832 h 5.871 c 0.069,0 0.129,-0.015 0.18,-0.045 0.051,-0.03 0.094,-0.073 0.128,-0.128 0.034,-0.056 0.059,-0.128 0.077,-0.218 0.017,-0.09 0.025,-0.195 0.025,-0.314 0,-0.111 -0.008,-0.207 -0.025,-0.288 -0.018,-0.082 -0.043,-0.148 -0.077,-0.199 -0.034,-0.051 -0.077,-0.09 -0.128,-0.116 -0.051,-0.025 -0.111,-0.038 -0.18,-0.038 h -5.871 v -6.614 h 6.923 c 0.059,0 0.115,-0.015 0.166,-0.045 0.051,-0.03 0.096,-0.073 0.135,-0.128 0.038,-0.056 0.066,-0.128 0.083,-0.218 0.017,-0.09 0.026,-0.195 0.026,-0.314"
         style="fill:#0043ff;fill-opacity:1;fill-rule:nonzero;stroke:none"
         id="path918" /><path
         d="m 348.58395,277.15484 c 0,-0.111 -0.009,-0.209 -0.026,-0.294 -0.017,-0.086 -0.043,-0.157 -0.077,-0.212 -0.034,-0.056 -0.077,-0.098 -0.128,-0.128 -0.051,-0.031 -0.107,-0.045 -0.166,-0.045 h -4.949 v -14.934 c 0,-0.051 -0.012,-0.098 -0.038,-0.141 -0.026,-0.043 -0.069,-0.077 -0.128,-0.102 -0.06,-0.026 -0.141,-0.047 -0.244,-0.064 -0.102,-0.018 -0.226,-0.026 -0.371,-0.026 -0.146,0 -0.269,0.008 -0.372,0.026 -0.103,0.017 -0.184,0.038 -0.244,0.064 -0.06,0.025 -0.102,0.059 -0.128,0.102 -0.025,0.043 -0.038,0.09 -0.038,0.141 v 14.934 h -4.948 c -0.069,0 -0.126,0.014 -0.173,0.045 -0.048,0.03 -0.088,0.072 -0.122,0.128 -0.035,0.055 -0.06,0.126 -0.077,0.212 -0.017,0.085 -0.026,0.183 -0.026,0.294 0,0.12 0.009,0.225 0.026,0.314 0.017,0.09 0.042,0.165 0.077,0.225 0.034,0.059 0.074,0.104 0.122,0.134 0.047,0.03 0.104,0.045 0.173,0.045 h 11.46 c 0.059,0 0.115,-0.015 0.166,-0.045 0.051,-0.03 0.094,-0.075 0.128,-0.134 0.034,-0.06 0.06,-0.135 0.077,-0.225 0.017,-0.089 0.026,-0.194 0.026,-0.314"
         style="fill:#0043ff;fill-opacity:1;fill-rule:nonzero;stroke:none"
         id="path922" /><path
         d="m 357.54395,282.51324 c 0.085,0.094 0.168,0.168 0.25,0.224 0.081,0.056 0.168,0.098 0.263,0.129 0.094,0.029 0.2,0.048 0.32,0.057 0.12,0.008 0.257,0.013 0.411,0.013 0.179,0 0.324,-0.015 0.435,-0.045 0.111,-0.03 0.19,-0.068 0.238,-0.115 0.046,-0.047 0.063,-0.103 0.051,-0.167 -0.013,-0.064 -0.05,-0.13 -0.109,-0.199 l -2.923,-2.807 c -0.085,-0.086 -0.163,-0.152 -0.23,-0.198 -0.069,-0.048 -0.142,-0.084 -0.219,-0.109 -0.076,-0.026 -0.16,-0.043 -0.25,-0.052 -0.089,-0.008 -0.198,-0.013 -0.326,-0.013 -0.146,0 -0.259,0.011 -0.34,0.032 -0.081,0.021 -0.134,0.052 -0.16,0.09 -0.026,0.038 -0.03,0.088 -0.013,0.148 0.017,0.059 0.06,0.128 0.128,0.205 z m 2.577,-20.535 c 0,-0.111 -0.009,-0.21 -0.026,-0.295 -0.017,-0.086 -0.045,-0.158 -0.083,-0.218 -0.039,-0.06 -0.084,-0.105 -0.135,-0.135 -0.051,-0.03 -0.107,-0.045 -0.166,-0.045 h -7.769 c -0.153,0 -0.312,0.058 -0.474,0.173 -0.162,0.116 -0.243,0.327 -0.243,0.635 v 14.972 c 0,0.308 0.081,0.519 0.243,0.635 0.162,0.115 0.321,0.172 0.474,0.172 h 7.653 c 0.06,0 0.116,-0.014 0.167,-0.044 0.051,-0.03 0.094,-0.075 0.128,-0.135 0.034,-0.06 0.059,-0.135 0.077,-0.224 0.017,-0.09 0.025,-0.195 0.025,-0.314 0,-0.111 -0.008,-0.21 -0.025,-0.295 -0.018,-0.086 -0.043,-0.156 -0.077,-0.212 -0.034,-0.055 -0.077,-0.098 -0.128,-0.128 -0.051,-0.03 -0.107,-0.045 -0.167,-0.045 h -6.807 v -5.832 h 5.871 c 0.069,0 0.129,-0.015 0.18,-0.045 0.051,-0.03 0.094,-0.073 0.128,-0.128 0.034,-0.056 0.059,-0.128 0.077,-0.218 0.017,-0.09 0.025,-0.195 0.025,-0.314 0,-0.111 -0.008,-0.207 -0.025,-0.288 -0.018,-0.082 -0.043,-0.148 -0.077,-0.199 -0.034,-0.051 -0.077,-0.09 -0.128,-0.116 -0.051,-0.025 -0.111,-0.038 -0.18,-0.038 h -5.871 v -6.614 h 6.923 c 0.059,0 0.115,-0.015 0.166,-0.045 0.051,-0.03 0.096,-0.073 0.135,-0.128 0.038,-0.056 0.066,-0.128 0.083,-0.218 0.017,-0.09 0.026,-0.195 0.026,-0.314"
         style="fill:#0043ff;fill-opacity:1;fill-rule:nonzero;stroke:none"
         id="path926" /><path
         d="m 380.50145,269.74614 c 0,0.965 -0.121,1.86 -0.365,2.685 -0.242,0.825 -0.619,1.536 -1.127,2.134 -0.51,0.598 -1.153,1.066 -1.93,1.404 -0.777,0.338 -1.769,0.506 -2.974,0.506 h -2.551 v -13.792 h 2.564 c 1.128,0 2.083,0.139 2.865,0.417 0.782,0.277 1.434,0.707 1.955,1.288 0.522,0.581 0.913,1.314 1.172,2.198 0.262,0.885 0.391,1.938 0.391,3.16 m 1.68,0.077 c 0,-1.393 -0.176,-2.622 -0.526,-3.685 -0.349,-1.064 -0.867,-1.955 -1.55,-2.673 -0.684,-0.718 -1.528,-1.261 -2.532,-1.628 -1.004,-0.368 -2.203,-0.551 -3.596,-0.551 h -3.268 c -0.154,0 -0.312,0.057 -0.475,0.172 -0.162,0.116 -0.243,0.328 -0.243,0.635 v 14.972 c 0,0.308 0.081,0.519 0.243,0.635 0.163,0.115 0.321,0.172 0.475,0.172 h 3.486 c 1.41,0 2.601,-0.191 3.57,-0.576 0.97,-0.384 1.781,-0.929 2.435,-1.634 0.655,-0.706 1.149,-1.552 1.481,-2.539 0.334,-0.986 0.5,-2.087 0.5,-3.3"
         style="fill:#0043ff;fill-opacity:1;fill-rule:nonzero;stroke:none"
         id="path930" /><path
         d="m 394.81985,261.97814 c 0,-0.111 -0.008,-0.209 -0.025,-0.295 -0.017,-0.085 -0.045,-0.158 -0.083,-0.218 -0.039,-0.06 -0.083,-0.105 -0.135,-0.134 -0.052,-0.031 -0.108,-0.045 -0.167,-0.045 h -7.768 c -0.154,0 -0.312,0.057 -0.474,0.172 -0.162,0.116 -0.244,0.328 -0.244,0.635 v 14.972 c 0,0.308 0.082,0.519 0.244,0.635 0.162,0.115 0.32,0.173 0.474,0.173 h 7.653 c 0.059,0 0.115,-0.015 0.167,-0.045 0.05,-0.03 0.093,-0.075 0.128,-0.135 0.034,-0.06 0.059,-0.134 0.077,-0.224 0.016,-0.09 0.025,-0.195 0.025,-0.314 0,-0.111 -0.009,-0.21 -0.025,-0.295 -0.018,-0.086 -0.043,-0.156 -0.077,-0.212 -0.035,-0.055 -0.078,-0.098 -0.128,-0.128 -0.052,-0.03 -0.108,-0.044 -0.167,-0.044 h -6.807 v -5.833 h 5.871 c 0.068,0 0.128,-0.015 0.18,-0.045 0.051,-0.03 0.093,-0.073 0.128,-0.128 0.034,-0.055 0.059,-0.128 0.077,-0.218 0.016,-0.089 0.025,-0.194 0.025,-0.314 0,-0.111 -0.009,-0.207 -0.025,-0.288 -0.018,-0.082 -0.043,-0.148 -0.077,-0.199 -0.035,-0.051 -0.077,-0.09 -0.128,-0.116 -0.052,-0.025 -0.112,-0.038 -0.18,-0.038 h -5.871 v -6.614 h 6.922 c 0.059,0 0.115,-0.015 0.167,-0.045 0.052,-0.03 0.096,-0.073 0.135,-0.128 0.038,-0.056 0.066,-0.128 0.083,-0.218 0.017,-0.09 0.025,-0.194 0.025,-0.314"
         style="fill:#0043ff;fill-opacity:1;fill-rule:nonzero;stroke:none"
         id="path934" /><path
         d="m 406.89405,265.77204 c 0,-0.735 -0.132,-1.393 -0.396,-1.974 -0.266,-0.581 -0.637,-1.075 -1.116,-1.481 -0.479,-0.405 -1.047,-0.715 -1.705,-0.929 -0.658,-0.213 -1.376,-0.32 -2.153,-0.32 -0.53,0 -1.03,0.049 -1.5,0.147 -0.471,0.099 -0.889,0.216 -1.257,0.353 -0.367,0.136 -0.677,0.275 -0.929,0.416 -0.252,0.142 -0.425,0.261 -0.519,0.359 -0.094,0.098 -0.162,0.214 -0.205,0.346 -0.043,0.133 -0.064,0.297 -0.064,0.494 0,0.145 0.008,0.265 0.026,0.359 0.016,0.094 0.04,0.17 0.07,0.23 0.03,0.06 0.068,0.101 0.115,0.122 0.047,0.022 0.097,0.032 0.148,0.032 0.12,0 0.288,-0.074 0.506,-0.224 0.218,-0.15 0.5,-0.312 0.846,-0.487 0.346,-0.175 0.761,-0.338 1.243,-0.487 0.483,-0.15 1.045,-0.225 1.686,-0.225 0.521,0 1,0.071 1.435,0.212 0.437,0.141 0.813,0.344 1.128,0.609 0.317,0.264 0.563,0.592 0.738,0.98 0.174,0.389 0.262,0.831 0.262,1.327 0,0.513 -0.11,0.953 -0.333,1.321 -0.222,0.367 -0.514,0.69 -0.878,0.967 -0.363,0.278 -0.775,0.53 -1.237,0.756 -0.461,0.227 -0.933,0.453 -1.416,0.68 -0.483,0.226 -0.955,0.472 -1.417,0.737 -0.461,0.265 -0.873,0.575 -1.236,0.93 -0.363,0.354 -0.656,0.771 -0.878,1.249 -0.223,0.479 -0.334,1.047 -0.334,1.705 0,0.641 0.115,1.215 0.347,1.724 0.23,0.509 0.554,0.94 0.973,1.295 0.419,0.354 0.921,0.626 1.507,0.814 0.585,0.188 1.228,0.282 1.929,0.282 0.35,0 0.705,-0.034 1.064,-0.103 0.359,-0.069 0.698,-0.156 1.019,-0.262 0.32,-0.107 0.606,-0.227 0.859,-0.359 0.252,-0.133 0.418,-0.24 0.499,-0.321 0.081,-0.081 0.133,-0.141 0.154,-0.179 0.022,-0.039 0.04,-0.088 0.058,-0.148 0.017,-0.06 0.03,-0.13 0.038,-0.211 0.009,-0.082 0.014,-0.182 0.014,-0.301 0,-0.112 -0.007,-0.212 -0.02,-0.302 -0.012,-0.09 -0.032,-0.167 -0.057,-0.231 -0.026,-0.064 -0.058,-0.113 -0.097,-0.147 -0.038,-0.034 -0.083,-0.051 -0.135,-0.051 -0.094,0 -0.236,0.062 -0.428,0.186 -0.193,0.123 -0.434,0.262 -0.725,0.416 -0.29,0.154 -0.637,0.293 -1.038,0.417 -0.403,0.124 -0.86,0.186 -1.372,0.186 -0.504,0 -0.945,-0.069 -1.321,-0.205 -0.376,-0.137 -0.687,-0.323 -0.935,-0.558 -0.248,-0.235 -0.434,-0.511 -0.558,-0.827 -0.124,-0.316 -0.185,-0.65 -0.185,-1 0,-0.512 0.111,-0.953 0.333,-1.32 0.222,-0.368 0.517,-0.692 0.884,-0.974 0.368,-0.282 0.785,-0.537 1.25,-0.763 0.466,-0.226 0.94,-0.453 1.423,-0.679 0.483,-0.227 0.957,-0.47 1.423,-0.731 0.466,-0.261 0.882,-0.568 1.249,-0.923 0.368,-0.354 0.663,-0.769 0.885,-1.243 0.223,-0.475 0.333,-1.037 0.333,-1.686"
         style="fill:#0043ff;fill-opacity:1;fill-rule:nonzero;stroke:none"
         id="path938" /><path
         d="m 420.01315,261.59724 c 0,-0.063 -0.016,-0.12 -0.047,-0.171 -0.031,-0.053 -0.083,-0.094 -0.155,-0.125 -0.073,-0.031 -0.169,-0.057 -0.289,-0.078 -0.119,-0.021 -0.273,-0.031 -0.459,-0.031 -0.177,0 -0.327,0.01 -0.451,0.031 -0.125,0.021 -0.224,0.047 -0.296,0.078 -0.074,0.031 -0.125,0.072 -0.157,0.125 -0.031,0.051 -0.046,0.108 -0.046,0.171 v 19.53 c 0,0.062 0.018,0.119 0.054,0.172 0.036,0.051 0.094,0.093 0.171,0.124 0.078,0.031 0.177,0.057 0.296,0.078 0.12,0.021 0.263,0.031 0.429,0.031 0.186,0 0.34,-0.01 0.459,-0.031 0.12,-0.021 0.216,-0.047 0.289,-0.078 0.072,-0.031 0.124,-0.073 0.155,-0.124 0.031,-0.053 0.047,-0.11 0.047,-0.172 z"
         style="fill:#0043ff;fill-opacity:1;fill-rule:nonzero;stroke:none"
         id="path942" /><path
         d="m 437.10105,262.03234 c 0,-0.152 -0.023,-0.278 -0.069,-0.38 -0.047,-0.101 -0.106,-0.183 -0.178,-0.246 -0.071,-0.063 -0.151,-0.108 -0.24,-0.133 -0.089,-0.026 -0.171,-0.038 -0.247,-0.038 h -0.316 c -0.169,0 -0.323,0.021 -0.462,0.063 -0.139,0.042 -0.274,0.116 -0.405,0.221 -0.131,0.106 -0.262,0.247 -0.392,0.424 -0.13,0.177 -0.276,0.405 -0.436,0.683 l -5.77,10.223 c -0.287,0.497 -0.575,1.01 -0.866,1.537 -0.291,0.527 -0.567,1.04 -0.829,1.537 h -0.013 c 0.009,-0.616 0.013,-1.246 0.013,-1.891 v -1.892 -10.602 c 0,-0.05 -0.013,-0.097 -0.038,-0.139 -0.025,-0.042 -0.067,-0.075 -0.126,-0.101 -0.06,-0.025 -0.138,-0.046 -0.234,-0.063 -0.097,-0.017 -0.222,-0.025 -0.373,-0.025 -0.144,0 -0.266,0.008 -0.368,0.025 -0.101,0.017 -0.181,0.038 -0.24,0.063 -0.059,0.026 -0.101,0.059 -0.127,0.101 -0.025,0.042 -0.037,0.089 -0.037,0.139 v 15.322 c 0,0.303 0.08,0.512 0.24,0.626 0.16,0.113 0.317,0.171 0.468,0.171 h 0.633 c 0.202,0 0.371,-0.018 0.506,-0.051 0.135,-0.034 0.257,-0.091 0.367,-0.171 0.109,-0.08 0.217,-0.194 0.322,-0.341 0.106,-0.148 0.222,-0.336 0.348,-0.563 l 4.416,-7.832 c 0.278,-0.489 0.541,-0.959 0.79,-1.411 0.249,-0.451 0.491,-0.894 0.727,-1.328 0.237,-0.434 0.471,-0.863 0.703,-1.284 0.232,-0.422 0.462,-0.848 0.689,-1.278 h 0.013 c -0.008,0.709 -0.013,1.447 -0.013,2.214 v 2.214 9.527 c 0,0.051 0.013,0.096 0.038,0.139 0.026,0.042 0.068,0.078 0.127,0.107 0.059,0.03 0.137,0.051 0.233,0.064 0.098,0.013 0.222,0.019 0.375,0.019 0.134,0 0.252,-0.006 0.353,-0.019 0.102,-0.013 0.182,-0.034 0.24,-0.064 0.06,-0.029 0.104,-0.065 0.134,-0.107 0.029,-0.043 0.044,-0.088 0.044,-0.139 z"
         style="fill:#0043ff;fill-opacity:1;fill-rule:nonzero;stroke:none"
         id="path946" /><path
         d="m 453.72505,275.59484 c 0,-0.11 -0.009,-0.211 -0.025,-0.304 -0.018,-0.093 -0.04,-0.171 -0.071,-0.234 -0.029,-0.063 -0.067,-0.112 -0.113,-0.146 -0.047,-0.033 -0.095,-0.05 -0.145,-0.05 -0.102,0 -0.268,0.084 -0.5,0.253 -0.233,0.168 -0.542,0.352 -0.93,0.55 -0.388,0.199 -0.859,0.382 -1.411,0.551 -0.552,0.168 -1.208,0.253 -1.967,0.253 -0.97,0 -1.835,-0.18 -2.594,-0.538 -0.759,-0.358 -1.4,-0.85 -1.923,-1.474 -0.523,-0.624 -0.922,-1.364 -1.195,-2.22 -0.274,-0.856 -0.411,-1.778 -0.411,-2.765 0,-1.105 0.155,-2.089 0.468,-2.954 0.311,-0.864 0.744,-1.594 1.296,-2.189 0.552,-0.594 1.21,-1.047 1.974,-1.359 0.763,-0.312 1.596,-0.469 2.498,-0.469 0.582,0 1.173,0.072 1.772,0.216 0.598,0.143 1.16,0.362 1.682,0.657 v 5.302 h -4.175 c -0.134,0 -0.236,0.058 -0.303,0.176 -0.068,0.119 -0.102,0.287 -0.102,0.507 0,0.117 0.009,0.221 0.026,0.31 0.017,0.088 0.042,0.159 0.076,0.215 0.033,0.054 0.076,0.096 0.127,0.126 0.05,0.029 0.109,0.044 0.176,0.044 h 5.01 c 0.076,0 0.156,-0.012 0.24,-0.038 0.085,-0.025 0.164,-0.067 0.235,-0.126 0.071,-0.059 0.129,-0.141 0.171,-0.247 0.042,-0.105 0.063,-0.234 0.063,-0.386 v -6.085 c 0,-0.202 -0.032,-0.375 -0.095,-0.519 -0.063,-0.143 -0.208,-0.28 -0.436,-0.411 -0.229,-0.131 -0.532,-0.274 -0.911,-0.43 -0.38,-0.156 -0.772,-0.287 -1.177,-0.392 -0.405,-0.106 -0.811,-0.186 -1.221,-0.241 -0.409,-0.054 -0.812,-0.082 -1.208,-0.082 -1.24,0 -2.347,0.2 -3.321,0.601 -0.975,0.4 -1.797,0.966 -2.467,1.695 -0.671,0.73 -1.183,1.599 -1.537,2.607 -0.354,1.007 -0.532,2.119 -0.532,3.333 0,1.274 0.192,2.436 0.576,3.486 0.384,1.05 0.924,1.946 1.619,2.688 0.697,0.742 1.53,1.318 2.499,1.727 0.97,0.409 2.041,0.614 3.213,0.614 0.591,0 1.15,-0.055 1.677,-0.165 0.527,-0.109 1.001,-0.242 1.423,-0.398 0.422,-0.156 0.78,-0.325 1.076,-0.506 0.295,-0.182 0.495,-0.325 0.601,-0.431 0.105,-0.105 0.176,-0.208 0.214,-0.31 0.038,-0.101 0.058,-0.248 0.058,-0.442"
         style="fill:#0043ff;fill-opacity:1;fill-rule:nonzero;stroke:none"
         id="path950" /><path
         d="m 464.37645,282.23644 c 0.085,0.093 0.167,0.167 0.247,0.222 0.08,0.054 0.166,0.096 0.26,0.126 0.093,0.029 0.197,0.048 0.315,0.057 0.118,0.009 0.254,0.012 0.406,0.012 0.176,0 0.32,-0.014 0.43,-0.043 0.11,-0.03 0.188,-0.068 0.234,-0.114 0.046,-0.047 0.063,-0.102 0.05,-0.165 -0.012,-0.063 -0.048,-0.129 -0.107,-0.196 l -2.885,-2.771 c -0.084,-0.084 -0.16,-0.149 -0.227,-0.196 -0.068,-0.046 -0.14,-0.082 -0.215,-0.107 -0.076,-0.026 -0.158,-0.043 -0.247,-0.051 -0.089,-0.008 -0.197,-0.013 -0.323,-0.013 -0.143,0 -0.255,0.011 -0.335,0.032 -0.081,0.021 -0.133,0.051 -0.159,0.089 -0.024,0.037 -0.029,0.086 -0.011,0.145 0.016,0.059 0.058,0.127 0.126,0.202 z m 2.543,-20.268 c 0,-0.109 -0.008,-0.206 -0.025,-0.291 -0.017,-0.084 -0.044,-0.156 -0.082,-0.214 -0.039,-0.06 -0.082,-0.104 -0.133,-0.133 -0.051,-0.03 -0.106,-0.045 -0.164,-0.045 h -7.667 c -0.152,0 -0.308,0.057 -0.468,0.171 -0.16,0.114 -0.24,0.323 -0.24,0.626 v 14.778 c 0,0.303 0.08,0.512 0.24,0.626 0.16,0.113 0.316,0.17 0.468,0.17 h 7.552 c 0.06,0 0.115,-0.014 0.165,-0.044 0.05,-0.03 0.093,-0.074 0.126,-0.133 0.035,-0.059 0.06,-0.133 0.077,-0.221 0.016,-0.089 0.025,-0.192 0.025,-0.31 0,-0.11 -0.009,-0.207 -0.025,-0.291 -0.017,-0.085 -0.042,-0.154 -0.077,-0.209 -0.033,-0.055 -0.076,-0.097 -0.126,-0.127 -0.05,-0.029 -0.105,-0.043 -0.165,-0.043 h -6.717 v -5.757 h 5.795 c 0.067,0 0.126,-0.015 0.176,-0.044 0.051,-0.03 0.093,-0.072 0.126,-0.127 0.034,-0.055 0.06,-0.126 0.076,-0.215 0.017,-0.088 0.026,-0.192 0.026,-0.31 0,-0.11 -0.009,-0.205 -0.026,-0.285 -0.016,-0.08 -0.042,-0.145 -0.076,-0.196 -0.033,-0.05 -0.075,-0.088 -0.126,-0.113 -0.05,-0.026 -0.109,-0.038 -0.176,-0.038 h -5.795 v -6.529 h 6.832 c 0.058,0 0.113,-0.014 0.164,-0.044 0.051,-0.03 0.094,-0.072 0.133,-0.127 0.038,-0.054 0.065,-0.126 0.082,-0.215 0.017,-0.088 0.025,-0.191 0.025,-0.31"
         style="fill:#0043ff;fill-opacity:1;fill-rule:nonzero;stroke:none"
         id="path954" /><path
         d="m 482.55715,262.03234 c 0,-0.152 -0.023,-0.278 -0.069,-0.38 -0.047,-0.101 -0.106,-0.183 -0.178,-0.246 -0.071,-0.063 -0.151,-0.108 -0.24,-0.133 -0.089,-0.026 -0.171,-0.038 -0.247,-0.038 h -0.316 c -0.169,0 -0.323,0.021 -0.462,0.063 -0.139,0.042 -0.274,0.116 -0.405,0.221 -0.131,0.106 -0.262,0.247 -0.392,0.424 -0.13,0.177 -0.276,0.405 -0.436,0.683 l -5.77,10.223 c -0.287,0.497 -0.575,1.01 -0.866,1.537 -0.291,0.527 -0.567,1.04 -0.829,1.537 h -0.013 c 0.009,-0.616 0.013,-1.246 0.013,-1.891 v -1.892 -10.602 c 0,-0.05 -0.013,-0.097 -0.038,-0.139 -0.025,-0.042 -0.067,-0.075 -0.126,-0.101 -0.06,-0.025 -0.138,-0.046 -0.234,-0.063 -0.097,-0.017 -0.222,-0.025 -0.373,-0.025 -0.144,0 -0.266,0.008 -0.368,0.025 -0.101,0.017 -0.181,0.038 -0.24,0.063 -0.059,0.026 -0.101,0.059 -0.127,0.101 -0.025,0.042 -0.037,0.089 -0.037,0.139 v 15.322 c 0,0.303 0.08,0.512 0.24,0.626 0.16,0.113 0.317,0.171 0.468,0.171 h 0.633 c 0.202,0 0.371,-0.018 0.506,-0.051 0.135,-0.034 0.257,-0.091 0.367,-0.171 0.109,-0.08 0.217,-0.194 0.322,-0.341 0.106,-0.148 0.222,-0.336 0.348,-0.563 l 4.416,-7.832 c 0.278,-0.489 0.541,-0.959 0.79,-1.411 0.249,-0.451 0.491,-0.894 0.727,-1.328 0.237,-0.434 0.471,-0.863 0.703,-1.284 0.232,-0.422 0.462,-0.848 0.689,-1.278 h 0.013 c -0.008,0.709 -0.013,1.447 -0.013,2.214 v 2.214 9.527 c 0,0.051 0.013,0.096 0.038,0.139 0.026,0.042 0.068,0.078 0.127,0.107 0.059,0.03 0.137,0.051 0.233,0.064 0.098,0.013 0.222,0.019 0.375,0.019 0.134,0 0.252,-0.006 0.353,-0.019 0.102,-0.013 0.182,-0.034 0.24,-0.064 0.06,-0.029 0.104,-0.065 0.134,-0.107 0.029,-0.043 0.044,-0.088 0.044,-0.139 z"
         style="fill:#0043ff;fill-opacity:1;fill-rule:nonzero;stroke:none"
         id="path958" /><path
         d="m 488.88235,261.53864 c 0,-0.05 -0.013,-0.097 -0.038,-0.139 -0.025,-0.042 -0.067,-0.076 -0.126,-0.101 -0.06,-0.026 -0.138,-0.047 -0.234,-0.064 -0.097,-0.016 -0.222,-0.025 -0.373,-0.025 -0.144,0 -0.266,0.009 -0.368,0.025 -0.101,0.017 -0.181,0.038 -0.24,0.064 -0.059,0.025 -0.101,0.059 -0.127,0.101 -0.025,0.042 -0.037,0.089 -0.037,0.139 v 15.865 c 0,0.051 0.015,0.097 0.044,0.139 0.029,0.042 0.076,0.076 0.139,0.101 0.063,0.026 0.143,0.047 0.241,0.064 0.097,0.017 0.213,0.025 0.348,0.025 0.151,0 0.276,-0.008 0.373,-0.025 0.096,-0.017 0.174,-0.038 0.234,-0.064 0.059,-0.025 0.101,-0.059 0.126,-0.101 0.025,-0.042 0.038,-0.088 0.038,-0.139 z"
         style="fill:#0043ff;fill-opacity:1;fill-rule:nonzero;stroke:none"
         id="path962" /><path
         d="m 502.44485,261.96884 c 0,-0.11 -0.008,-0.207 -0.025,-0.291 -0.017,-0.084 -0.044,-0.156 -0.082,-0.215 -0.039,-0.059 -0.082,-0.103 -0.133,-0.133 -0.051,-0.029 -0.106,-0.044 -0.164,-0.044 h -7.667 c -0.152,0 -0.308,0.057 -0.468,0.171 -0.16,0.114 -0.24,0.323 -0.24,0.626 v 14.777 c 0,0.303 0.08,0.512 0.24,0.626 0.16,0.114 0.316,0.171 0.468,0.171 h 7.552 c 0.06,0 0.115,-0.015 0.165,-0.044 0.05,-0.03 0.093,-0.074 0.126,-0.133 0.035,-0.059 0.06,-0.133 0.077,-0.221 0.016,-0.089 0.025,-0.192 0.025,-0.311 0,-0.109 -0.009,-0.207 -0.025,-0.291 -0.017,-0.084 -0.042,-0.153 -0.077,-0.209 -0.033,-0.054 -0.076,-0.096 -0.126,-0.126 -0.05,-0.029 -0.105,-0.044 -0.165,-0.044 h -6.717 v -5.756 h 5.795 c 0.067,0 0.126,-0.015 0.176,-0.045 0.051,-0.029 0.093,-0.071 0.126,-0.126 0.035,-0.055 0.06,-0.127 0.076,-0.215 0.017,-0.089 0.026,-0.192 0.026,-0.311 0,-0.109 -0.009,-0.204 -0.026,-0.284 -0.016,-0.08 -0.041,-0.146 -0.076,-0.196 -0.033,-0.051 -0.075,-0.089 -0.126,-0.114 -0.05,-0.025 -0.109,-0.038 -0.176,-0.038 h -5.795 v -6.528 h 6.832 c 0.058,0 0.113,-0.015 0.164,-0.044 0.051,-0.03 0.094,-0.072 0.133,-0.127 0.038,-0.055 0.065,-0.127 0.082,-0.215 0.017,-0.088 0.025,-0.192 0.025,-0.31"
         style="fill:#0043ff;fill-opacity:1;fill-rule:nonzero;stroke:none"
         id="path966" /><path
         d="m 518.05715,267.30774 c 0,-0.995 -0.142,-1.881 -0.424,-2.657 -0.283,-0.776 -0.685,-1.429 -1.208,-1.961 -0.523,-0.531 -1.156,-0.934 -1.898,-1.208 -0.742,-0.274 -1.573,-0.411 -2.492,-0.411 -0.835,0 -1.605,0.131 -2.309,0.392 -0.704,0.262 -1.312,0.647 -1.822,1.158 -0.51,0.51 -0.907,1.143 -1.189,1.897 -0.283,0.755 -0.424,1.626 -0.424,2.613 v 10.273 c 0,0.05 0.013,0.097 0.038,0.139 0.025,0.042 0.07,0.076 0.133,0.101 0.063,0.026 0.141,0.047 0.234,0.064 0.092,0.017 0.215,0.025 0.367,0.025 0.143,0 0.265,-0.008 0.367,-0.025 0.101,-0.017 0.181,-0.038 0.24,-0.064 0.059,-0.025 0.101,-0.059 0.126,-0.101 0.026,-0.042 0.038,-0.089 0.038,-0.139 v -10.02 c 0,-0.818 0.1,-1.535 0.298,-2.151 0.197,-0.615 0.485,-1.128 0.861,-1.537 0.375,-0.409 0.83,-0.717 1.366,-0.924 0.535,-0.206 1.14,-0.309 1.815,-0.309 0.683,0 1.292,0.098 1.828,0.297 0.535,0.198 0.989,0.5 1.36,0.904 0.371,0.405 0.656,0.909 0.854,1.512 0.198,0.603 0.297,1.31 0.297,2.119 v 10.109 c 0,0.05 0.013,0.097 0.038,0.139 0.026,0.042 0.068,0.076 0.127,0.101 0.059,0.026 0.139,0.047 0.24,0.064 0.102,0.017 0.224,0.025 0.368,0.025 0.142,0 0.265,-0.008 0.366,-0.025 0.101,-0.017 0.181,-0.038 0.241,-0.064 0.059,-0.025 0.101,-0.059 0.126,-0.101 0.025,-0.042 0.038,-0.089 0.038,-0.139 z"
         style="fill:#0043ff;fill-opacity:1;fill-rule:nonzero;stroke:none"
         id="path970" /><path
         d="m 530.32955,273.26664 c 0,0.7 -0.156,1.292 -0.469,1.777 -0.311,0.486 -0.835,0.833 -1.568,1.044 -0.245,0.068 -0.511,0.116 -0.797,0.146 -0.287,0.029 -0.662,0.044 -1.126,0.044 h -2.024 v -6.01 h 2.353 c 0.632,0 1.177,0.079 1.632,0.235 0.455,0.156 0.833,0.368 1.132,0.639 0.3,0.27 0.519,0.585 0.658,0.948 0.14,0.363 0.209,0.755 0.209,1.177 m 2.72,-11.703 c 0,-0.059 -0.011,-0.11 -0.032,-0.151 -0.021,-0.043 -0.061,-0.079 -0.12,-0.108 -0.059,-0.029 -0.141,-0.053 -0.247,-0.07 -0.105,-0.016 -0.238,-0.025 -0.398,-0.025 -0.144,0 -0.264,0.006 -0.36,0.019 -0.098,0.013 -0.18,0.038 -0.248,0.076 -0.067,0.038 -0.122,0.088 -0.164,0.152 -0.043,0.063 -0.08,0.145 -0.114,0.247 l -1.53,3.972 c -0.178,0.447 -0.367,0.869 -0.57,1.265 -0.203,0.397 -0.447,0.741 -0.734,1.032 -0.287,0.291 -0.633,0.52 -1.037,0.689 -0.405,0.168 -0.89,0.253 -1.455,0.253 h -1.695 v -7.376 c 0,-0.05 -0.013,-0.097 -0.038,-0.139 -0.026,-0.042 -0.068,-0.076 -0.126,-0.101 -0.06,-0.026 -0.138,-0.047 -0.235,-0.064 -0.096,-0.016 -0.221,-0.025 -0.373,-0.025 -0.143,0 -0.265,0.009 -0.367,0.025 -0.102,0.017 -0.182,0.038 -0.24,0.064 -0.06,0.025 -0.102,0.059 -0.127,0.101 -0.026,0.042 -0.037,0.089 -0.037,0.139 v 15.321 c 0,0.303 0.08,0.512 0.24,0.626 0.16,0.114 0.316,0.171 0.468,0.171 h 3.074 c 0.405,0 0.74,-0.011 1.006,-0.032 0.265,-0.021 0.508,-0.048 0.727,-0.082 0.624,-0.109 1.168,-0.287 1.632,-0.531 0.464,-0.245 0.848,-0.546 1.151,-0.905 0.304,-0.358 0.53,-0.763 0.677,-1.214 0.148,-0.452 0.222,-0.938 0.222,-1.461 0,-0.54 -0.076,-1.023 -0.228,-1.449 -0.152,-0.426 -0.367,-0.801 -0.645,-1.126 -0.278,-0.325 -0.611,-0.606 -0.999,-0.841 -0.389,-0.237 -0.815,-0.435 -1.278,-0.595 0.278,-0.127 0.529,-0.283 0.752,-0.468 0.224,-0.186 0.43,-0.409 0.621,-0.671 0.189,-0.261 0.368,-0.563 0.537,-0.904 0.169,-0.342 0.338,-0.724 0.507,-1.145 l 1.53,-3.821 c 0.109,-0.295 0.179,-0.498 0.209,-0.607 0.029,-0.11 0.044,-0.19 0.044,-0.241"
         style="fill:#0043ff;fill-opacity:1;fill-rule:nonzero;stroke:none"
         id="path974" /><path
         d="m 544.49855,265.71394 c 0,-0.726 -0.131,-1.375 -0.392,-1.949 -0.261,-0.573 -0.629,-1.06 -1.101,-1.461 -0.472,-0.401 -1.033,-0.706 -1.683,-0.917 -0.649,-0.211 -1.357,-0.316 -2.125,-0.316 -0.523,0 -1.016,0.048 -1.48,0.145 -0.464,0.097 -0.877,0.213 -1.24,0.348 -0.363,0.135 -0.668,0.272 -0.917,0.411 -0.25,0.139 -0.419,0.258 -0.512,0.355 -0.093,0.096 -0.161,0.21 -0.203,0.341 -0.042,0.131 -0.063,0.293 -0.063,0.487 0,0.143 0.008,0.262 0.026,0.354 0.016,0.093 0.039,0.169 0.069,0.228 0.029,0.059 0.067,0.099 0.113,0.12 0.047,0.021 0.096,0.032 0.146,0.032 0.118,0 0.285,-0.074 0.5,-0.221 0.215,-0.148 0.493,-0.309 0.835,-0.481 0.341,-0.173 0.751,-0.333 1.227,-0.481 0.477,-0.148 1.031,-0.222 1.663,-0.222 0.515,0 0.988,0.07 1.417,0.209 0.431,0.14 0.802,0.34 1.114,0.601 0.312,0.262 0.554,0.584 0.727,0.968 0.173,0.384 0.26,0.821 0.26,1.31 0,0.506 -0.11,0.94 -0.329,1.303 -0.22,0.362 -0.508,0.681 -0.866,0.955 -0.36,0.274 -0.766,0.523 -1.222,0.746 -0.455,0.224 -0.921,0.448 -1.398,0.671 -0.476,0.223 -0.942,0.466 -1.398,0.727 -0.455,0.262 -0.862,0.568 -1.221,0.918 -0.358,0.349 -0.647,0.761 -0.866,1.233 -0.22,0.472 -0.329,1.033 -0.329,1.683 0,0.632 0.114,1.199 0.342,1.701 0.227,0.502 0.548,0.928 0.961,1.278 0.413,0.35 0.909,0.618 1.487,0.803 0.577,0.186 1.212,0.279 1.903,0.279 0.346,0 0.697,-0.034 1.051,-0.101 0.354,-0.068 0.69,-0.154 1.006,-0.26 0.315,-0.105 0.599,-0.223 0.847,-0.354 0.249,-0.131 0.414,-0.236 0.494,-0.316 0.08,-0.081 0.131,-0.139 0.151,-0.177 0.022,-0.038 0.04,-0.087 0.058,-0.146 0.016,-0.059 0.029,-0.129 0.037,-0.209 0.009,-0.08 0.013,-0.179 0.013,-0.297 0,-0.11 -0.006,-0.209 -0.019,-0.297 -0.013,-0.089 -0.031,-0.165 -0.057,-0.228 -0.025,-0.063 -0.057,-0.112 -0.095,-0.146 -0.037,-0.033 -0.082,-0.05 -0.133,-0.05 -0.093,0 -0.234,0.061 -0.424,0.183 -0.189,0.123 -0.428,0.26 -0.715,0.411 -0.286,0.152 -0.628,0.289 -1.024,0.412 -0.397,0.122 -0.848,0.183 -1.354,0.183 -0.498,0 -0.932,-0.067 -1.303,-0.202 -0.372,-0.135 -0.679,-0.319 -0.923,-0.55 -0.245,-0.233 -0.429,-0.505 -0.551,-0.817 -0.122,-0.312 -0.184,-0.641 -0.184,-0.987 0,-0.505 0.111,-0.94 0.329,-1.302 0.22,-0.363 0.511,-0.684 0.873,-0.962 0.363,-0.279 0.774,-0.529 1.234,-0.753 0.46,-0.223 0.928,-0.447 1.404,-0.67 0.477,-0.224 0.944,-0.464 1.404,-0.721 0.46,-0.258 0.872,-0.561 1.234,-0.911 0.363,-0.35 0.654,-0.76 0.873,-1.227 0.22,-0.469 0.329,-1.023 0.329,-1.664"
         style="fill:#0043ff;fill-opacity:1;fill-rule:nonzero;stroke:none"
         id="path978" /><path
         d="m 562.57665,261.96884 c 0,-0.11 -0.008,-0.207 -0.025,-0.291 -0.017,-0.084 -0.044,-0.156 -0.082,-0.215 -0.039,-0.059 -0.082,-0.103 -0.133,-0.133 -0.051,-0.029 -0.106,-0.044 -0.164,-0.044 h -7.667 c -0.152,0 -0.308,0.057 -0.468,0.171 -0.16,0.114 -0.24,0.323 -0.24,0.626 v 14.777 c 0,0.303 0.08,0.512 0.24,0.626 0.16,0.114 0.316,0.171 0.468,0.171 h 7.552 c 0.06,0 0.115,-0.015 0.165,-0.044 0.05,-0.03 0.093,-0.074 0.126,-0.133 0.035,-0.059 0.06,-0.133 0.077,-0.221 0.016,-0.089 0.025,-0.192 0.025,-0.311 0,-0.109 -0.009,-0.207 -0.025,-0.291 -0.017,-0.084 -0.042,-0.153 -0.077,-0.209 -0.033,-0.054 -0.076,-0.096 -0.126,-0.126 -0.05,-0.029 -0.105,-0.044 -0.165,-0.044 h -6.717 v -5.756 h 5.795 c 0.067,0 0.126,-0.015 0.176,-0.045 0.051,-0.029 0.093,-0.071 0.126,-0.126 0.035,-0.055 0.06,-0.127 0.076,-0.215 0.017,-0.089 0.026,-0.192 0.026,-0.311 0,-0.109 -0.009,-0.204 -0.026,-0.284 -0.016,-0.08 -0.041,-0.146 -0.076,-0.196 -0.033,-0.051 -0.075,-0.089 -0.126,-0.114 -0.05,-0.025 -0.109,-0.038 -0.176,-0.038 h -5.795 v -6.528 h 6.832 c 0.058,0 0.113,-0.015 0.164,-0.044 0.051,-0.03 0.094,-0.072 0.133,-0.127 0.038,-0.055 0.065,-0.127 0.082,-0.215 0.017,-0.088 0.025,-0.192 0.025,-0.31"
         style="fill:#0043ff;fill-opacity:1;fill-rule:nonzero;stroke:none"
         id="path982" /><path
         d="m 576.37935,276.94834 c 0,-0.11 -0.008,-0.207 -0.025,-0.291 -0.017,-0.084 -0.042,-0.154 -0.076,-0.209 -0.034,-0.055 -0.076,-0.097 -0.127,-0.126 -0.05,-0.03 -0.105,-0.044 -0.164,-0.044 h -4.883 v -14.74 c 0,-0.05 -0.013,-0.097 -0.038,-0.139 -0.026,-0.042 -0.068,-0.076 -0.126,-0.101 -0.06,-0.025 -0.14,-0.046 -0.242,-0.063 -0.1,-0.017 -0.222,-0.025 -0.366,-0.025 -0.143,0 -0.266,0.008 -0.367,0.025 -0.102,0.017 -0.182,0.038 -0.24,0.063 -0.06,0.025 -0.102,0.059 -0.127,0.101 -0.026,0.042 -0.037,0.089 -0.037,0.139 v 14.74 h -4.884 c -0.068,0 -0.125,0.014 -0.171,0.044 -0.047,0.029 -0.087,0.071 -0.12,0.126 -0.034,0.055 -0.06,0.125 -0.076,0.209 -0.017,0.084 -0.026,0.181 -0.026,0.291 0,0.118 0.009,0.221 0.026,0.31 0.016,0.088 0.042,0.162 0.076,0.221 0.033,0.059 0.073,0.103 0.12,0.133 0.046,0.03 0.103,0.044 0.171,0.044 h 11.31 c 0.059,0 0.114,-0.014 0.164,-0.044 0.051,-0.03 0.093,-0.074 0.127,-0.133 0.034,-0.059 0.059,-0.133 0.076,-0.221 0.017,-0.089 0.025,-0.192 0.025,-0.31"
         style="fill:#0043ff;fill-opacity:1;fill-rule:nonzero;stroke:none"
         id="path986" /><path
         d="m 284.35155,238.47174 c 0,-0.893 -0.161,-1.693 -0.482,-2.398 -0.323,-0.707 -0.774,-1.307 -1.355,-1.799 -0.582,-0.494 -1.272,-0.87 -2.072,-1.13 -0.799,-0.259 -1.672,-0.389 -2.616,-0.389 -0.644,0 -1.252,0.06 -1.823,0.179 -0.571,0.12 -1.08,0.262 -1.526,0.429 -0.446,0.166 -0.823,0.334 -1.129,0.505 -0.307,0.172 -0.517,0.317 -0.631,0.436 -0.114,0.12 -0.197,0.26 -0.249,0.421 -0.052,0.161 -0.078,0.361 -0.078,0.6 0,0.176 0.01,0.321 0.031,0.436 0.021,0.114 0.05,0.208 0.086,0.28 0.036,0.073 0.083,0.122 0.14,0.148 0.057,0.026 0.117,0.039 0.179,0.039 0.146,0 0.351,-0.091 0.615,-0.273 0.265,-0.181 0.608,-0.379 1.028,-0.591 0.421,-0.213 0.924,-0.411 1.511,-0.592 0.586,-0.182 1.269,-0.273 2.048,-0.273 0.633,0 1.215,0.086 1.744,0.257 0.53,0.172 0.987,0.418 1.371,0.74 0.384,0.322 0.683,0.719 0.895,1.192 0.213,0.472 0.32,1.009 0.32,1.612 0,0.623 -0.135,1.157 -0.405,1.604 -0.27,0.446 -0.626,0.838 -1.067,1.175 -0.442,0.338 -0.942,0.644 -1.503,0.919 -0.561,0.275 -1.135,0.551 -1.721,0.826 -0.587,0.275 -1.16,0.573 -1.721,0.896 -0.561,0.321 -1.062,0.697 -1.503,1.128 -0.441,0.431 -0.797,0.937 -1.066,1.519 -0.271,0.582 -0.406,1.272 -0.406,2.071 0,0.779 0.14,1.477 0.421,2.095 0.28,0.618 0.674,1.142 1.184,1.573 0.508,0.431 1.118,0.761 1.829,0.989 0.712,0.229 1.493,0.343 2.345,0.343 0.425,0 0.856,-0.042 1.292,-0.125 0.436,-0.083 0.849,-0.19 1.238,-0.319 0.389,-0.13 0.737,-0.275 1.044,-0.436 0.306,-0.161 0.509,-0.291 0.607,-0.39 0.099,-0.098 0.161,-0.171 0.187,-0.218 0.026,-0.046 0.049,-0.106 0.07,-0.179 0.021,-0.072 0.036,-0.158 0.047,-0.257 0.01,-0.099 0.016,-0.22 0.016,-0.366 0,-0.135 -0.008,-0.257 -0.024,-0.365 -0.016,-0.11 -0.039,-0.203 -0.07,-0.281 -0.031,-0.078 -0.07,-0.138 -0.117,-0.179 -0.047,-0.042 -0.101,-0.062 -0.163,-0.062 -0.115,0 -0.289,0.075 -0.522,0.226 -0.234,0.15 -0.527,0.318 -0.88,0.505 -0.353,0.187 -0.774,0.356 -1.262,0.507 -0.488,0.15 -1.043,0.225 -1.666,0.225 -0.613,0 -1.148,-0.083 -1.604,-0.249 -0.457,-0.166 -0.836,-0.392 -1.137,-0.677 -0.302,-0.286 -0.527,-0.62 -0.678,-1.005 -0.15,-0.384 -0.226,-0.789 -0.226,-1.215 0,-0.623 0.135,-1.157 0.406,-1.604 0.269,-0.446 0.628,-0.84 1.074,-1.183 0.447,-0.343 0.953,-0.652 1.518,-0.927 0.566,-0.275 1.143,-0.55 1.729,-0.825 0.587,-0.276 1.163,-0.571 1.729,-0.888 0.566,-0.317 1.072,-0.691 1.519,-1.121 0.446,-0.432 0.804,-0.935 1.074,-1.511 0.27,-0.576 0.405,-1.259 0.405,-2.048"
         style="fill:#0043ff;fill-opacity:1;fill-rule:nonzero;stroke:none"
         id="path990" /><path
         d="m 299.32565,235.24714 c 0,-0.093 -0.004,-0.177 -0.013,-0.253 -0.008,-0.076 -0.021,-0.143 -0.038,-0.203 -0.016,-0.059 -0.04,-0.113 -0.069,-0.164 -0.03,-0.05 -0.085,-0.116 -0.165,-0.196 -0.08,-0.08 -0.255,-0.211 -0.525,-0.392 -0.27,-0.182 -0.609,-0.361 -1.018,-0.538 -0.409,-0.177 -0.88,-0.329 -1.411,-0.455 -0.531,-0.127 -1.117,-0.19 -1.759,-0.19 -1.028,0 -1.96,0.179 -2.795,0.537 -0.835,0.359 -1.546,0.884 -2.132,1.576 -0.586,0.691 -1.037,1.543 -1.354,2.555 -0.316,1.013 -0.474,2.168 -0.474,3.467 0,1.333 0.169,2.528 0.506,3.587 0.337,1.058 0.811,1.956 1.423,2.694 0.612,0.738 1.345,1.304 2.201,1.696 0.856,0.392 1.803,0.588 2.841,0.588 0.489,0 0.963,-0.046 1.423,-0.139 0.46,-0.093 0.883,-0.211 1.272,-0.355 0.387,-0.143 0.735,-0.308 1.043,-0.493 0.308,-0.185 0.519,-0.335 0.633,-0.449 0.114,-0.114 0.185,-0.196 0.215,-0.247 0.029,-0.05 0.052,-0.107 0.07,-0.17 0.016,-0.064 0.029,-0.136 0.038,-0.216 0.008,-0.08 0.012,-0.17 0.012,-0.272 0,-0.118 -0.006,-0.221 -0.019,-0.309 -0.012,-0.089 -0.033,-0.165 -0.063,-0.228 -0.03,-0.063 -0.066,-0.112 -0.108,-0.146 -0.042,-0.034 -0.092,-0.05 -0.151,-0.05 -0.119,0 -0.285,0.086 -0.5,0.259 -0.215,0.173 -0.498,0.365 -0.848,0.576 -0.35,0.21 -0.778,0.402 -1.284,0.576 -0.506,0.172 -1.109,0.259 -1.809,0.259 -0.768,0 -1.472,-0.155 -2.113,-0.462 -0.641,-0.308 -1.192,-0.761 -1.651,-1.36 -0.46,-0.599 -0.818,-1.337 -1.075,-2.214 -0.258,-0.877 -0.386,-1.885 -0.386,-3.024 0,-1.088 0.118,-2.054 0.354,-2.897 0.236,-0.844 0.578,-1.554 1.025,-2.132 0.447,-0.578 0.999,-1.018 1.657,-1.322 0.658,-0.304 1.404,-0.455 2.239,-0.455 0.683,0 1.28,0.086 1.79,0.259 0.511,0.173 0.947,0.365 1.31,0.576 0.363,0.21 0.66,0.402 0.892,0.575 0.232,0.173 0.411,0.259 0.538,0.259 0.05,0 0.092,-0.01 0.126,-0.031 0.034,-0.021 0.061,-0.059 0.083,-0.114 0.02,-0.055 0.037,-0.128 0.05,-0.221 0.013,-0.093 0.019,-0.207 0.019,-0.342"
         style="fill:#0043ff;fill-opacity:1;fill-rule:nonzero;stroke:none"
         id="path994" /><path
         d="m 304.48585,233.27354 c 0,-0.05 -0.013,-0.097 -0.038,-0.139 -0.025,-0.042 -0.067,-0.076 -0.127,-0.101 -0.059,-0.026 -0.137,-0.047 -0.233,-0.064 -0.098,-0.016 -0.222,-0.025 -0.373,-0.025 -0.144,0 -0.267,0.009 -0.368,0.025 -0.101,0.017 -0.181,0.038 -0.24,0.064 -0.059,0.025 -0.101,0.059 -0.126,0.101 -0.026,0.042 -0.038,0.089 -0.038,0.139 v 15.865 c 0,0.051 0.014,0.097 0.044,0.139 0.029,0.042 0.076,0.076 0.139,0.101 0.063,0.026 0.143,0.047 0.24,0.064 0.097,0.017 0.213,0.025 0.349,0.025 0.151,0 0.275,-0.008 0.373,-0.025 0.096,-0.017 0.174,-0.038 0.233,-0.064 0.06,-0.025 0.102,-0.059 0.127,-0.101 0.025,-0.042 0.038,-0.088 0.038,-0.139 z"
         style="fill:#0043ff;fill-opacity:1;fill-rule:nonzero;stroke:none"
         id="path998" /><path
         d="m 318.51465,233.70374 c 0,-0.11 -0.009,-0.207 -0.025,-0.291 -0.017,-0.084 -0.045,-0.156 -0.082,-0.215 -0.039,-0.059 -0.083,-0.103 -0.134,-0.133 -0.05,-0.029 -0.105,-0.044 -0.164,-0.044 h -7.667 c -0.152,0 -0.308,0.057 -0.468,0.171 -0.16,0.114 -0.24,0.323 -0.24,0.626 v 14.777 c 0,0.303 0.08,0.512 0.24,0.626 0.16,0.114 0.316,0.171 0.468,0.171 h 7.553 c 0.059,0 0.114,-0.015 0.165,-0.044 0.05,-0.03 0.092,-0.074 0.126,-0.133 0.034,-0.059 0.059,-0.133 0.076,-0.221 0.017,-0.089 0.026,-0.192 0.026,-0.311 0,-0.109 -0.009,-0.207 -0.026,-0.291 -0.017,-0.084 -0.042,-0.153 -0.076,-0.209 -0.034,-0.054 -0.076,-0.096 -0.126,-0.126 -0.051,-0.029 -0.106,-0.044 -0.165,-0.044 h -6.718 v -5.756 h 5.795 c 0.067,0 0.126,-0.015 0.177,-0.045 0.05,-0.029 0.093,-0.071 0.126,-0.126 0.034,-0.055 0.059,-0.127 0.076,-0.215 0.017,-0.089 0.025,-0.192 0.025,-0.311 0,-0.109 -0.008,-0.204 -0.025,-0.284 -0.017,-0.08 -0.042,-0.146 -0.076,-0.196 -0.033,-0.051 -0.076,-0.089 -0.126,-0.114 -0.051,-0.025 -0.11,-0.038 -0.177,-0.038 h -5.795 v -6.528 h 6.832 c 0.059,0 0.114,-0.015 0.164,-0.044 0.051,-0.03 0.095,-0.072 0.134,-0.127 0.037,-0.055 0.065,-0.127 0.082,-0.215 0.016,-0.088 0.025,-0.192 0.025,-0.31"
         style="fill:#0043ff;fill-opacity:1;fill-rule:nonzero;stroke:none"
         id="path1002" /><path
         d="m 334.61815,233.76714 c 0,-0.152 -0.023,-0.278 -0.07,-0.38 -0.046,-0.101 -0.105,-0.183 -0.177,-0.246 -0.072,-0.063 -0.151,-0.108 -0.24,-0.133 -0.089,-0.026 -0.171,-0.038 -0.247,-0.038 h -0.316 c -0.169,0 -0.323,0.021 -0.462,0.063 -0.139,0.042 -0.274,0.116 -0.405,0.221 -0.131,0.106 -0.261,0.247 -0.392,0.424 -0.131,0.177 -0.276,0.405 -0.437,0.683 l -5.769,10.223 c -0.286,0.497 -0.575,1.01 -0.866,1.537 -0.291,0.527 -0.568,1.04 -0.829,1.537 h -0.013 c 0.009,-0.616 0.013,-1.246 0.013,-1.891 v -1.892 -10.602 c 0,-0.05 -0.013,-0.097 -0.038,-0.139 -0.025,-0.042 -0.067,-0.075 -0.127,-0.101 -0.059,-0.025 -0.137,-0.046 -0.233,-0.063 -0.098,-0.017 -0.222,-0.025 -0.373,-0.025 -0.144,0 -0.267,0.008 -0.368,0.025 -0.101,0.017 -0.181,0.038 -0.24,0.063 -0.059,0.026 -0.101,0.059 -0.126,0.101 -0.026,0.042 -0.038,0.089 -0.038,0.139 v 15.322 c 0,0.303 0.08,0.512 0.24,0.626 0.16,0.113 0.316,0.171 0.468,0.171 h 0.633 c 0.202,0 0.37,-0.018 0.506,-0.051 0.135,-0.034 0.257,-0.091 0.366,-0.171 0.11,-0.08 0.218,-0.194 0.323,-0.341 0.106,-0.148 0.221,-0.336 0.348,-0.563 l 4.415,-7.832 c 0.279,-0.489 0.542,-0.959 0.791,-1.411 0.249,-0.451 0.492,-0.894 0.728,-1.328 0.236,-0.434 0.47,-0.863 0.702,-1.284 0.232,-0.422 0.462,-0.848 0.69,-1.278 h 0.012 c -0.009,0.709 -0.012,1.447 -0.012,2.214 v 2.214 9.527 c 0,0.051 0.012,0.096 0.037,0.139 0.026,0.042 0.068,0.078 0.127,0.107 0.059,0.03 0.137,0.051 0.234,0.064 0.097,0.013 0.221,0.019 0.373,0.019 0.135,0 0.253,-0.006 0.355,-0.019 0.101,-0.013 0.181,-0.034 0.24,-0.064 0.059,-0.029 0.103,-0.065 0.133,-0.107 0.029,-0.043 0.044,-0.088 0.044,-0.139 z"
         style="fill:#0043ff;fill-opacity:1;fill-rule:nonzero;stroke:none"
         id="path1006" /><path
         d="m 349.78615,248.68314 c 0,-0.11 -0.009,-0.207 -0.025,-0.291 -0.017,-0.084 -0.043,-0.154 -0.077,-0.209 -0.033,-0.055 -0.075,-0.097 -0.126,-0.126 -0.05,-0.03 -0.105,-0.044 -0.165,-0.044 h -4.883 v -14.74 c 0,-0.05 -0.013,-0.097 -0.038,-0.139 -0.025,-0.042 -0.067,-0.076 -0.126,-0.101 -0.06,-0.025 -0.14,-0.046 -0.241,-0.063 -0.101,-0.017 -0.223,-0.025 -0.366,-0.025 -0.144,0 -0.266,0.008 -0.368,0.025 -0.101,0.017 -0.181,0.038 -0.24,0.063 -0.059,0.025 -0.101,0.059 -0.126,0.101 -0.026,0.042 -0.038,0.089 -0.038,0.139 v 14.74 h -4.884 c -0.068,0 -0.124,0.014 -0.171,0.044 -0.046,0.029 -0.086,0.071 -0.12,0.126 -0.033,0.055 -0.059,0.125 -0.076,0.209 -0.017,0.084 -0.025,0.181 -0.025,0.291 0,0.118 0.008,0.221 0.025,0.31 0.017,0.088 0.043,0.162 0.076,0.221 0.034,0.059 0.074,0.103 0.12,0.133 0.047,0.03 0.103,0.044 0.171,0.044 h 11.31 c 0.06,0 0.115,-0.014 0.165,-0.044 0.051,-0.03 0.093,-0.074 0.126,-0.133 0.034,-0.059 0.06,-0.133 0.077,-0.221 0.016,-0.089 0.025,-0.192 0.025,-0.31"
         style="fill:#0043ff;fill-opacity:1;fill-rule:nonzero;stroke:none"
         id="path1010" /><path
         d="m 354.40185,233.27354 c 0,-0.05 -0.013,-0.097 -0.038,-0.139 -0.025,-0.042 -0.067,-0.076 -0.127,-0.101 -0.059,-0.026 -0.137,-0.047 -0.233,-0.064 -0.098,-0.016 -0.222,-0.025 -0.373,-0.025 -0.144,0 -0.267,0.009 -0.368,0.025 -0.101,0.017 -0.181,0.038 -0.24,0.064 -0.059,0.025 -0.101,0.059 -0.126,0.101 -0.026,0.042 -0.038,0.089 -0.038,0.139 v 15.865 c 0,0.051 0.014,0.097 0.044,0.139 0.029,0.042 0.076,0.076 0.139,0.101 0.063,0.026 0.143,0.047 0.24,0.064 0.097,0.017 0.213,0.025 0.349,0.025 0.151,0 0.275,-0.008 0.373,-0.025 0.096,-0.017 0.174,-0.038 0.233,-0.064 0.06,-0.025 0.102,-0.059 0.127,-0.101 0.025,-0.042 0.038,-0.088 0.038,-0.139 z"
         style="fill:#0043ff;fill-opacity:1;fill-rule:nonzero;stroke:none"
         id="path1014" /><path
         d="m 367.93705,248.68314 c 0,-0.11 -0.008,-0.207 -0.025,-0.291 -0.017,-0.084 -0.044,-0.154 -0.082,-0.209 -0.039,-0.055 -0.082,-0.097 -0.133,-0.126 -0.051,-0.03 -0.106,-0.044 -0.165,-0.044 h -6.338 v -6.2 h 6.009 c 0.059,0 0.114,-0.01 0.165,-0.031 0.05,-0.021 0.095,-0.057 0.132,-0.108 0.039,-0.051 0.066,-0.118 0.083,-0.202 0.017,-0.085 0.025,-0.19 0.025,-0.317 0,-0.109 -0.008,-0.206 -0.025,-0.291 -0.017,-0.084 -0.044,-0.154 -0.083,-0.208 -0.037,-0.056 -0.082,-0.098 -0.132,-0.127 -0.051,-0.03 -0.106,-0.044 -0.165,-0.044 h -6.009 v -7.212 c 0,-0.05 -0.013,-0.097 -0.038,-0.139 -0.025,-0.042 -0.068,-0.076 -0.127,-0.101 -0.059,-0.025 -0.137,-0.046 -0.234,-0.063 -0.097,-0.017 -0.221,-0.025 -0.373,-0.025 -0.143,0 -0.266,0.008 -0.367,0.025 -0.101,0.017 -0.181,0.038 -0.24,0.063 -0.059,0.025 -0.101,0.059 -0.127,0.101 -0.025,0.042 -0.038,0.089 -0.038,0.139 v 15.322 c 0,0.303 0.08,0.512 0.241,0.626 0.16,0.113 0.316,0.17 0.468,0.17 h 7.173 c 0.059,0 0.114,-0.014 0.165,-0.044 0.051,-0.03 0.094,-0.074 0.133,-0.133 0.038,-0.059 0.065,-0.133 0.082,-0.221 0.017,-0.089 0.025,-0.192 0.025,-0.31"
         style="fill:#0043ff;fill-opacity:1;fill-rule:nonzero;stroke:none"
         id="path1018" /><path
         d="m 373.57765,233.27354 c 0,-0.05 -0.013,-0.097 -0.038,-0.139 -0.025,-0.042 -0.067,-0.076 -0.127,-0.101 -0.059,-0.026 -0.137,-0.047 -0.233,-0.064 -0.098,-0.016 -0.222,-0.025 -0.373,-0.025 -0.144,0 -0.267,0.009 -0.368,0.025 -0.101,0.017 -0.181,0.038 -0.24,0.064 -0.059,0.025 -0.101,0.059 -0.126,0.101 -0.026,0.042 -0.038,0.089 -0.038,0.139 v 15.865 c 0,0.051 0.014,0.097 0.044,0.139 0.029,0.042 0.076,0.076 0.139,0.101 0.063,0.026 0.143,0.047 0.24,0.064 0.097,0.017 0.213,0.025 0.349,0.025 0.151,0 0.275,-0.008 0.373,-0.025 0.096,-0.017 0.174,-0.038 0.233,-0.064 0.06,-0.025 0.102,-0.059 0.127,-0.101 0.025,-0.042 0.038,-0.088 0.038,-0.139 z"
         style="fill:#0043ff;fill-opacity:1;fill-rule:nonzero;stroke:none"
         id="path1022" /><path
         d="m 390.35205,241.25694 c 0,0.97 -0.091,1.878 -0.272,2.726 -0.182,0.848 -0.481,1.586 -0.899,2.214 -0.417,0.628 -0.972,1.122 -1.663,1.48 -0.692,0.359 -1.548,0.538 -2.568,0.538 -1.013,0 -1.867,-0.187 -2.563,-0.563 -0.695,-0.375 -1.261,-0.879 -1.695,-1.512 -0.435,-0.633 -0.746,-1.37 -0.936,-2.214 -0.19,-0.843 -0.285,-1.733 -0.285,-2.669 0,-0.996 0.087,-1.921 0.26,-2.777 0.173,-0.856 0.466,-1.6 0.879,-2.233 0.413,-0.633 0.966,-1.128 1.657,-1.487 0.691,-0.358 1.557,-0.538 2.594,-0.538 1.029,0 1.893,0.192 2.594,0.576 0.7,0.384 1.264,0.898 1.695,1.543 0.43,0.646 0.738,1.393 0.924,2.24 0.185,0.848 0.278,1.739 0.278,2.676 m 3.909,-9.615 c 0,-0.135 -0.011,-0.251 -0.032,-0.348 -0.021,-0.097 -0.05,-0.175 -0.088,-0.234 -0.038,-0.059 -0.078,-0.101 -0.12,-0.127 -0.043,-0.025 -0.089,-0.038 -0.14,-0.038 -0.1,0 -0.318,0.068 -0.651,0.203 -0.333,0.135 -0.736,0.328 -1.208,0.582 -0.473,0.253 -0.989,0.563 -1.55,0.93 -0.561,0.366 -1.12,0.794 -1.677,1.284 -0.429,-0.296 -0.982,-0.551 -1.657,-0.766 -0.675,-0.215 -1.472,-0.322 -2.39,-0.322 -1.215,0 -2.259,0.192 -3.132,0.575 -0.873,0.384 -1.59,0.932 -2.151,1.645 -0.561,0.712 -0.974,1.584 -1.24,2.612 -0.266,1.029 -0.398,2.189 -0.398,3.48 0,1.282 0.147,2.446 0.442,3.492 0.296,1.045 0.745,1.937 1.348,2.675 0.603,0.738 1.358,1.31 2.264,1.715 0.908,0.404 1.972,0.607 3.195,0.607 1.147,0 2.153,-0.19 3.017,-0.57 0.864,-0.379 1.586,-0.923 2.163,-1.632 0.578,-0.708 1.013,-1.568 1.304,-2.581 0.291,-1.012 0.437,-2.154 0.437,-3.428 0,-0.65 -0.039,-1.282 -0.115,-1.898 -0.075,-0.616 -0.196,-1.201 -0.36,-1.758 -0.164,-0.557 -0.375,-1.078 -0.633,-1.563 -0.257,-0.485 -0.562,-0.921 -0.917,-1.309 0.658,-0.549 1.235,-0.974 1.734,-1.278 0.497,-0.304 0.906,-0.536 1.227,-0.696 0.32,-0.16 0.566,-0.274 0.739,-0.342 0.173,-0.067 0.298,-0.139 0.374,-0.214 0.076,-0.077 0.13,-0.169 0.164,-0.279 0.034,-0.109 0.051,-0.248 0.051,-0.417"
         style="fill:#0043ff;fill-opacity:1;fill-rule:nonzero;stroke:none"
         id="path1026" /><path
         d="m 408.27685,239.04254 c 0,-0.995 -0.142,-1.881 -0.424,-2.657 -0.283,-0.776 -0.685,-1.429 -1.208,-1.961 -0.523,-0.531 -1.156,-0.934 -1.898,-1.208 -0.742,-0.274 -1.573,-0.411 -2.492,-0.411 -0.835,0 -1.605,0.131 -2.309,0.392 -0.704,0.262 -1.312,0.647 -1.822,1.158 -0.51,0.51 -0.907,1.143 -1.189,1.897 -0.283,0.755 -0.424,1.626 -0.424,2.613 v 10.273 c 0,0.05 0.013,0.097 0.038,0.139 0.025,0.042 0.07,0.076 0.133,0.101 0.063,0.026 0.141,0.047 0.234,0.064 0.092,0.017 0.215,0.025 0.367,0.025 0.143,0 0.265,-0.008 0.367,-0.025 0.101,-0.017 0.181,-0.038 0.24,-0.064 0.059,-0.025 0.101,-0.059 0.126,-0.101 0.026,-0.042 0.038,-0.089 0.038,-0.139 v -10.02 c 0,-0.818 0.1,-1.535 0.298,-2.151 0.197,-0.615 0.485,-1.128 0.861,-1.537 0.375,-0.409 0.83,-0.717 1.366,-0.924 0.535,-0.206 1.14,-0.309 1.815,-0.309 0.683,0 1.292,0.098 1.828,0.297 0.535,0.198 0.989,0.5 1.36,0.904 0.371,0.405 0.656,0.909 0.854,1.512 0.198,0.603 0.297,1.31 0.297,2.119 v 10.109 c 0,0.05 0.013,0.097 0.038,0.139 0.026,0.042 0.068,0.076 0.127,0.101 0.059,0.026 0.139,0.047 0.24,0.064 0.102,0.017 0.224,0.025 0.368,0.025 0.142,0 0.265,-0.008 0.366,-0.025 0.101,-0.017 0.181,-0.038 0.241,-0.064 0.059,-0.025 0.101,-0.059 0.126,-0.101 0.025,-0.042 0.038,-0.089 0.038,-0.139 z"
         style="fill:#0043ff;fill-opacity:1;fill-rule:nonzero;stroke:none"
         id="path1030" /><path
         d="m 422.26805,233.70374 c 0,-0.11 -0.008,-0.207 -0.025,-0.291 -0.017,-0.084 -0.044,-0.156 -0.082,-0.215 -0.039,-0.059 -0.082,-0.103 -0.133,-0.133 -0.051,-0.029 -0.106,-0.044 -0.164,-0.044 h -7.667 c -0.152,0 -0.308,0.057 -0.468,0.171 -0.16,0.114 -0.24,0.323 -0.24,0.626 v 14.777 c 0,0.303 0.08,0.512 0.24,0.626 0.16,0.114 0.316,0.171 0.468,0.171 h 7.552 c 0.06,0 0.115,-0.015 0.165,-0.044 0.05,-0.03 0.093,-0.074 0.126,-0.133 0.035,-0.059 0.06,-0.133 0.077,-0.221 0.016,-0.089 0.025,-0.192 0.025,-0.311 0,-0.109 -0.009,-0.207 -0.025,-0.291 -0.017,-0.084 -0.042,-0.153 -0.077,-0.209 -0.033,-0.054 -0.076,-0.096 -0.126,-0.126 -0.05,-0.029 -0.105,-0.044 -0.165,-0.044 h -6.717 v -5.756 h 5.795 c 0.067,0 0.126,-0.015 0.176,-0.045 0.051,-0.029 0.093,-0.071 0.126,-0.126 0.035,-0.055 0.06,-0.127 0.076,-0.215 0.017,-0.089 0.026,-0.192 0.026,-0.311 0,-0.109 -0.009,-0.204 -0.026,-0.284 -0.016,-0.08 -0.041,-0.146 -0.076,-0.196 -0.033,-0.051 -0.075,-0.089 -0.126,-0.114 -0.05,-0.025 -0.109,-0.038 -0.176,-0.038 h -5.795 v -6.528 h 6.832 c 0.058,0 0.113,-0.015 0.164,-0.044 0.051,-0.03 0.094,-0.072 0.133,-0.127 0.038,-0.055 0.065,-0.127 0.082,-0.215 0.017,-0.088 0.025,-0.192 0.025,-0.31"
         style="fill:#0043ff;fill-opacity:1;fill-rule:nonzero;stroke:none"
         id="path1034" /><path
         d="m 434.65185,237.44884 c 0,-0.726 -0.131,-1.375 -0.392,-1.949 -0.261,-0.573 -0.629,-1.06 -1.101,-1.461 -0.472,-0.401 -1.033,-0.706 -1.683,-0.917 -0.649,-0.211 -1.357,-0.316 -2.125,-0.316 -0.523,0 -1.016,0.048 -1.48,0.145 -0.464,0.097 -0.877,0.213 -1.24,0.348 -0.363,0.135 -0.668,0.272 -0.917,0.411 -0.25,0.139 -0.419,0.258 -0.512,0.355 -0.093,0.096 -0.161,0.21 -0.203,0.341 -0.042,0.131 -0.063,0.293 -0.063,0.487 0,0.143 0.008,0.262 0.026,0.354 0.016,0.093 0.039,0.169 0.069,0.228 0.029,0.059 0.067,0.099 0.113,0.12 0.047,0.021 0.096,0.032 0.146,0.032 0.118,0 0.285,-0.074 0.5,-0.221 0.215,-0.148 0.493,-0.309 0.835,-0.481 0.341,-0.173 0.751,-0.333 1.227,-0.481 0.477,-0.148 1.031,-0.222 1.663,-0.222 0.515,0 0.988,0.07 1.417,0.209 0.431,0.14 0.802,0.34 1.114,0.601 0.312,0.262 0.554,0.584 0.727,0.968 0.173,0.384 0.26,0.821 0.26,1.31 0,0.506 -0.11,0.94 -0.329,1.303 -0.22,0.362 -0.508,0.681 -0.866,0.955 -0.36,0.274 -0.766,0.523 -1.222,0.746 -0.455,0.224 -0.921,0.448 -1.398,0.671 -0.476,0.223 -0.942,0.466 -1.398,0.727 -0.455,0.262 -0.862,0.568 -1.221,0.918 -0.358,0.349 -0.647,0.761 -0.866,1.233 -0.22,0.472 -0.329,1.033 -0.329,1.683 0,0.632 0.114,1.199 0.342,1.701 0.227,0.502 0.548,0.928 0.961,1.278 0.413,0.35 0.909,0.618 1.487,0.803 0.577,0.186 1.212,0.279 1.903,0.279 0.346,0 0.697,-0.034 1.051,-0.101 0.354,-0.068 0.69,-0.154 1.006,-0.26 0.315,-0.105 0.599,-0.223 0.847,-0.354 0.249,-0.131 0.414,-0.236 0.494,-0.316 0.08,-0.081 0.131,-0.139 0.151,-0.177 0.022,-0.038 0.04,-0.087 0.058,-0.146 0.016,-0.059 0.029,-0.129 0.037,-0.209 0.009,-0.08 0.013,-0.179 0.013,-0.297 0,-0.11 -0.006,-0.209 -0.019,-0.297 -0.013,-0.089 -0.031,-0.165 -0.057,-0.228 -0.025,-0.063 -0.057,-0.112 -0.095,-0.146 -0.037,-0.033 -0.082,-0.05 -0.133,-0.05 -0.093,0 -0.234,0.061 -0.424,0.183 -0.189,0.123 -0.428,0.26 -0.715,0.411 -0.286,0.152 -0.628,0.289 -1.024,0.412 -0.397,0.122 -0.848,0.183 -1.354,0.183 -0.498,0 -0.932,-0.067 -1.303,-0.202 -0.372,-0.135 -0.679,-0.319 -0.923,-0.55 -0.245,-0.233 -0.429,-0.505 -0.551,-0.817 -0.122,-0.312 -0.184,-0.641 -0.184,-0.987 0,-0.505 0.111,-0.94 0.329,-1.302 0.22,-0.363 0.511,-0.684 0.873,-0.962 0.363,-0.279 0.774,-0.529 1.234,-0.753 0.46,-0.223 0.928,-0.447 1.404,-0.67 0.477,-0.224 0.944,-0.464 1.404,-0.721 0.46,-0.258 0.872,-0.561 1.234,-0.911 0.363,-0.35 0.654,-0.76 0.873,-1.227 0.22,-0.469 0.329,-1.023 0.329,-1.664"
         style="fill:#0043ff;fill-opacity:1;fill-rule:nonzero;stroke:none"
         id="path1038" /><path
         d="m 459.04155,241.37064 c 0,0.953 -0.12,1.836 -0.36,2.65 -0.242,0.814 -0.613,1.517 -1.115,2.107 -0.501,0.59 -1.135,1.052 -1.903,1.385 -0.768,0.333 -1.746,0.5 -2.935,0.5 h -2.518 v -13.613 h 2.53 c 1.113,0 2.056,0.137 2.828,0.411 0.772,0.274 1.414,0.698 1.929,1.271 0.515,0.574 0.9,1.297 1.158,2.17 0.257,0.873 0.386,1.912 0.386,3.119 m 1.657,0.076 c 0,-1.375 -0.173,-2.587 -0.518,-3.638 -0.347,-1.05 -0.857,-1.929 -1.532,-2.637 -0.674,-0.709 -1.507,-1.244 -2.499,-1.607 -0.99,-0.363 -2.173,-0.544 -3.547,-0.544 h -3.227 c -0.151,0 -0.308,0.057 -0.468,0.171 -0.16,0.114 -0.24,0.323 -0.24,0.626 v 14.777 c 0,0.303 0.08,0.512 0.24,0.626 0.16,0.114 0.317,0.171 0.468,0.171 h 3.441 c 1.392,0 2.566,-0.19 3.524,-0.569 0.957,-0.38 1.759,-0.918 2.403,-1.614 0.646,-0.695 1.133,-1.53 1.462,-2.505 0.328,-0.974 0.493,-2.06 0.493,-3.257"
         style="fill:#0043ff;fill-opacity:1;fill-rule:nonzero;stroke:none"
         id="path1042" /><path
         d="m 473.63815,233.70374 c 0,-0.11 -0.008,-0.207 -0.025,-0.291 -0.017,-0.084 -0.044,-0.156 -0.082,-0.215 -0.039,-0.059 -0.082,-0.103 -0.133,-0.133 -0.051,-0.029 -0.106,-0.044 -0.164,-0.044 h -7.667 c -0.152,0 -0.308,0.057 -0.468,0.171 -0.16,0.114 -0.24,0.323 -0.24,0.626 v 14.777 c 0,0.303 0.08,0.512 0.24,0.626 0.16,0.114 0.316,0.171 0.468,0.171 h 7.552 c 0.06,0 0.115,-0.015 0.165,-0.044 0.05,-0.03 0.093,-0.074 0.126,-0.133 0.035,-0.059 0.06,-0.133 0.077,-0.221 0.016,-0.089 0.025,-0.192 0.025,-0.311 0,-0.109 -0.009,-0.207 -0.025,-0.291 -0.017,-0.084 -0.042,-0.153 -0.077,-0.209 -0.033,-0.054 -0.076,-0.096 -0.126,-0.126 -0.05,-0.029 -0.105,-0.044 -0.165,-0.044 h -6.717 v -5.756 h 5.795 c 0.067,0 0.126,-0.015 0.176,-0.045 0.051,-0.029 0.093,-0.071 0.126,-0.126 0.035,-0.055 0.06,-0.127 0.076,-0.215 0.017,-0.089 0.026,-0.192 0.026,-0.311 0,-0.109 -0.009,-0.204 -0.026,-0.284 -0.016,-0.08 -0.041,-0.146 -0.076,-0.196 -0.033,-0.051 -0.075,-0.089 -0.126,-0.114 -0.05,-0.025 -0.109,-0.038 -0.176,-0.038 h -5.795 v -6.528 h 6.832 c 0.058,0 0.113,-0.015 0.164,-0.044 0.051,-0.03 0.094,-0.072 0.133,-0.127 0.038,-0.055 0.065,-0.127 0.082,-0.215 0.017,-0.088 0.025,-0.192 0.025,-0.31"
         style="fill:#0043ff;fill-opacity:1;fill-rule:nonzero;stroke:none"
         id="path1046" /><path
         d="m 501.18505,252.30134 c 0,-0.135 -0.011,-0.254 -0.031,-0.358 -0.021,-0.104 -0.055,-0.189 -0.101,-0.257 -0.047,-0.068 -0.101,-0.119 -0.164,-0.156 -0.062,-0.036 -0.13,-0.054 -0.202,-0.054 h -7.803 v -7.632 h 7.398 c 0.072,0 0.14,-0.013 0.203,-0.039 0.061,-0.025 0.116,-0.069 0.163,-0.132 0.047,-0.062 0.08,-0.145 0.101,-0.249 0.021,-0.104 0.032,-0.234 0.032,-0.39 0,-0.134 -0.011,-0.254 -0.032,-0.358 -0.021,-0.104 -0.054,-0.189 -0.101,-0.257 -0.047,-0.067 -0.102,-0.119 -0.163,-0.156 -0.063,-0.036 -0.131,-0.054 -0.203,-0.054 h -7.398 v -8.877 c 0,-0.063 -0.015,-0.12 -0.047,-0.172 -0.031,-0.052 -0.083,-0.093 -0.155,-0.124 -0.073,-0.031 -0.169,-0.057 -0.289,-0.078 -0.119,-0.021 -0.272,-0.031 -0.459,-0.031 -0.177,0 -0.327,0.01 -0.451,0.031 -0.125,0.021 -0.224,0.047 -0.296,0.078 -0.073,0.031 -0.125,0.072 -0.156,0.124 -0.032,0.052 -0.047,0.109 -0.047,0.172 v 18.86 c 0,0.374 0.098,0.631 0.296,0.771 0.197,0.14 0.389,0.211 0.576,0.211 h 8.831 c 0.072,0 0.14,-0.019 0.202,-0.055 0.063,-0.037 0.117,-0.091 0.164,-0.164 0.046,-0.072 0.08,-0.163 0.101,-0.272 0.02,-0.109 0.031,-0.236 0.031,-0.382"
         style="fill:#0043ff;fill-opacity:1;fill-rule:nonzero;stroke:none"
         id="path1050" /><path
         d="m 513.20455,245.00154 c 0,0.7 -0.156,1.292 -0.469,1.777 -0.311,0.486 -0.835,0.833 -1.568,1.044 -0.245,0.068 -0.511,0.116 -0.797,0.146 -0.287,0.029 -0.662,0.044 -1.126,0.044 h -2.024 v -6.01 h 2.353 c 0.632,0 1.177,0.079 1.632,0.235 0.455,0.156 0.833,0.368 1.132,0.639 0.3,0.27 0.519,0.585 0.658,0.948 0.14,0.363 0.209,0.755 0.209,1.177 m 2.72,-11.703 c 0,-0.059 -0.011,-0.11 -0.032,-0.151 -0.021,-0.043 -0.061,-0.079 -0.12,-0.108 -0.059,-0.029 -0.141,-0.053 -0.247,-0.07 -0.105,-0.016 -0.238,-0.025 -0.398,-0.025 -0.144,0 -0.264,0.006 -0.36,0.019 -0.098,0.013 -0.18,0.038 -0.248,0.076 -0.067,0.038 -0.122,0.088 -0.164,0.152 -0.043,0.063 -0.08,0.145 -0.114,0.247 l -1.53,3.972 c -0.178,0.447 -0.367,0.869 -0.57,1.265 -0.203,0.397 -0.447,0.741 -0.734,1.032 -0.287,0.291 -0.633,0.52 -1.037,0.689 -0.405,0.168 -0.89,0.253 -1.455,0.253 h -1.695 v -7.376 c 0,-0.05 -0.013,-0.097 -0.038,-0.139 -0.026,-0.042 -0.068,-0.076 -0.126,-0.101 -0.06,-0.026 -0.138,-0.047 -0.235,-0.064 -0.096,-0.016 -0.221,-0.025 -0.373,-0.025 -0.143,0 -0.265,0.009 -0.367,0.025 -0.102,0.017 -0.182,0.038 -0.24,0.064 -0.06,0.025 -0.102,0.059 -0.127,0.101 -0.026,0.042 -0.037,0.089 -0.037,0.139 v 15.321 c 0,0.303 0.08,0.512 0.24,0.626 0.16,0.114 0.316,0.171 0.468,0.171 h 3.074 c 0.405,0 0.74,-0.011 1.006,-0.032 0.265,-0.021 0.508,-0.048 0.727,-0.082 0.624,-0.109 1.168,-0.287 1.632,-0.531 0.464,-0.245 0.848,-0.546 1.151,-0.905 0.304,-0.358 0.53,-0.763 0.677,-1.214 0.148,-0.452 0.222,-0.938 0.222,-1.461 0,-0.54 -0.076,-1.023 -0.228,-1.449 -0.152,-0.426 -0.367,-0.801 -0.645,-1.126 -0.278,-0.325 -0.611,-0.606 -0.999,-0.841 -0.389,-0.237 -0.815,-0.435 -1.278,-0.595 0.278,-0.127 0.529,-0.283 0.752,-0.468 0.224,-0.186 0.43,-0.409 0.621,-0.671 0.189,-0.261 0.368,-0.563 0.537,-0.904 0.169,-0.342 0.338,-0.724 0.507,-1.145 l 1.53,-3.821 c 0.109,-0.295 0.179,-0.498 0.209,-0.607 0.029,-0.11 0.044,-0.19 0.044,-0.241"
         style="fill:#0043ff;fill-opacity:1;fill-rule:nonzero;stroke:none"
         id="path1054" /><path
         d="m 524.76615,247.73444 h -0.013 l -3.087,-8.806 h 6.263 z m 6.794,-14.195 c 0.051,-0.127 0.074,-0.23 0.07,-0.31 -0.005,-0.08 -0.034,-0.141 -0.089,-0.183 -0.054,-0.042 -0.139,-0.07 -0.253,-0.083 -0.114,-0.013 -0.259,-0.019 -0.436,-0.019 -0.178,0 -0.318,0.006 -0.424,0.019 -0.105,0.013 -0.187,0.032 -0.247,0.057 -0.059,0.026 -0.103,0.059 -0.133,0.101 -0.029,0.043 -0.056,0.093 -0.082,0.152 l -1.568,4.365 h -7.187 l -1.506,-4.34 c -0.016,-0.059 -0.042,-0.109 -0.075,-0.151 -0.034,-0.043 -0.081,-0.079 -0.139,-0.108 -0.059,-0.029 -0.142,-0.053 -0.247,-0.07 -0.106,-0.016 -0.239,-0.025 -0.399,-0.025 -0.177,0 -0.324,0.009 -0.442,0.025 -0.118,0.017 -0.205,0.047 -0.26,0.089 -0.055,0.042 -0.084,0.101 -0.088,0.177 -0.005,0.076 0.019,0.177 0.069,0.304 l 5.732,15.574 c 0.025,0.067 0.062,0.124 0.113,0.171 0.051,0.046 0.116,0.082 0.196,0.107 0.08,0.026 0.177,0.045 0.291,0.057 0.115,0.013 0.243,0.019 0.386,0.019 0.153,0 0.285,-0.006 0.399,-0.019 0.114,-0.012 0.211,-0.031 0.291,-0.057 0.08,-0.025 0.143,-0.061 0.19,-0.107 0.046,-0.047 0.082,-0.104 0.107,-0.171 z"
         style="fill:#0043ff;fill-opacity:1;fill-rule:nonzero;stroke:none"
         id="path1058" /><path
         d="m 546.75245,233.76714 c 0,-0.152 -0.023,-0.278 -0.069,-0.38 -0.047,-0.101 -0.106,-0.183 -0.178,-0.246 -0.071,-0.063 -0.151,-0.108 -0.24,-0.133 -0.089,-0.026 -0.171,-0.038 -0.247,-0.038 h -0.316 c -0.169,0 -0.323,0.021 -0.462,0.063 -0.139,0.042 -0.274,0.116 -0.405,0.221 -0.131,0.106 -0.262,0.247 -0.392,0.424 -0.13,0.177 -0.276,0.405 -0.436,0.683 l -5.77,10.223 c -0.287,0.497 -0.575,1.01 -0.866,1.537 -0.291,0.527 -0.567,1.04 -0.829,1.537 h -0.013 c 0.009,-0.616 0.013,-1.246 0.013,-1.891 v -1.892 -10.602 c 0,-0.05 -0.013,-0.097 -0.038,-0.139 -0.025,-0.042 -0.067,-0.075 -0.126,-0.101 -0.06,-0.025 -0.138,-0.046 -0.234,-0.063 -0.097,-0.017 -0.222,-0.025 -0.373,-0.025 -0.144,0 -0.266,0.008 -0.368,0.025 -0.101,0.017 -0.181,0.038 -0.24,0.063 -0.059,0.026 -0.101,0.059 -0.127,0.101 -0.025,0.042 -0.037,0.089 -0.037,0.139 v 15.322 c 0,0.303 0.08,0.512 0.24,0.626 0.16,0.113 0.317,0.171 0.468,0.171 h 0.633 c 0.202,0 0.371,-0.018 0.506,-0.051 0.135,-0.034 0.257,-0.091 0.367,-0.171 0.109,-0.08 0.217,-0.194 0.322,-0.341 0.106,-0.148 0.222,-0.336 0.348,-0.563 l 4.416,-7.832 c 0.278,-0.489 0.541,-0.959 0.79,-1.411 0.249,-0.451 0.491,-0.894 0.727,-1.328 0.237,-0.434 0.471,-0.863 0.703,-1.284 0.232,-0.422 0.462,-0.848 0.689,-1.278 h 0.013 c -0.008,0.709 -0.013,1.447 -0.013,2.214 v 2.214 9.527 c 0,0.051 0.013,0.096 0.038,0.139 0.026,0.042 0.068,0.078 0.127,0.107 0.059,0.03 0.137,0.051 0.233,0.064 0.098,0.013 0.222,0.019 0.375,0.019 0.134,0 0.252,-0.006 0.353,-0.019 0.102,-0.013 0.182,-0.034 0.24,-0.064 0.06,-0.029 0.104,-0.065 0.134,-0.107 0.029,-0.043 0.044,-0.088 0.044,-0.139 z"
         style="fill:#0043ff;fill-opacity:1;fill-rule:nonzero;stroke:none"
         id="path1062" /><path
         d="m 562.71725,235.24714 c 0,-0.093 -0.005,-0.177 -0.013,-0.253 -0.008,-0.076 -0.021,-0.143 -0.038,-0.203 -0.017,-0.059 -0.04,-0.113 -0.07,-0.164 -0.029,-0.05 -0.084,-0.116 -0.164,-0.196 -0.08,-0.08 -0.255,-0.211 -0.526,-0.392 -0.269,-0.182 -0.609,-0.361 -1.017,-0.538 -0.41,-0.177 -0.88,-0.329 -1.411,-0.455 -0.532,-0.127 -1.117,-0.19 -1.759,-0.19 -1.029,0 -1.961,0.179 -2.796,0.537 -0.835,0.359 -1.546,0.884 -2.132,1.576 -0.586,0.691 -1.037,1.543 -1.353,2.555 -0.317,1.013 -0.475,2.168 -0.475,3.467 0,1.333 0.169,2.528 0.506,3.587 0.338,1.058 0.812,1.956 1.424,2.694 0.611,0.738 1.345,1.304 2.201,1.696 0.856,0.392 1.803,0.588 2.84,0.588 0.489,0 0.964,-0.046 1.424,-0.139 0.46,-0.093 0.883,-0.211 1.271,-0.355 0.388,-0.143 0.735,-0.308 1.044,-0.493 0.308,-0.185 0.519,-0.335 0.632,-0.449 0.114,-0.114 0.185,-0.196 0.216,-0.247 0.029,-0.05 0.052,-0.107 0.069,-0.17 0.017,-0.064 0.029,-0.136 0.038,-0.216 0.008,-0.08 0.013,-0.17 0.013,-0.272 0,-0.118 -0.007,-0.221 -0.02,-0.309 -0.012,-0.089 -0.033,-0.165 -0.062,-0.228 -0.03,-0.063 -0.066,-0.112 -0.109,-0.146 -0.042,-0.034 -0.092,-0.05 -0.151,-0.05 -0.118,0 -0.284,0.086 -0.5,0.259 -0.215,0.173 -0.497,0.365 -0.848,0.576 -0.349,0.21 -0.777,0.402 -1.284,0.576 -0.506,0.172 -1.108,0.259 -1.808,0.259 -0.768,0 -1.472,-0.155 -2.114,-0.462 -0.64,-0.308 -1.191,-0.761 -1.65,-1.36 -0.46,-0.599 -0.818,-1.337 -1.076,-2.214 -0.257,-0.877 -0.386,-1.885 -0.386,-3.024 0,-1.088 0.118,-2.054 0.355,-2.897 0.236,-0.844 0.578,-1.554 1.024,-2.132 0.447,-0.578 1,-1.018 1.658,-1.322 0.657,-0.304 1.404,-0.455 2.239,-0.455 0.683,0 1.28,0.086 1.79,0.259 0.51,0.173 0.947,0.365 1.31,0.576 0.362,0.21 0.659,0.402 0.892,0.575 0.231,0.173 0.411,0.259 0.538,0.259 0.049,0 0.091,-0.01 0.126,-0.031 0.033,-0.021 0.061,-0.059 0.082,-0.114 0.021,-0.055 0.038,-0.128 0.05,-0.221 0.013,-0.093 0.02,-0.207 0.02,-0.342"
         style="fill:#0043ff;fill-opacity:1;fill-rule:nonzero;stroke:none"
         id="path1066" /><path
         d="m 575.11275,233.70374 c 0,-0.11 -0.008,-0.207 -0.025,-0.291 -0.017,-0.084 -0.044,-0.156 -0.082,-0.215 -0.039,-0.059 -0.082,-0.103 -0.133,-0.133 -0.051,-0.029 -0.106,-0.044 -0.164,-0.044 h -7.667 c -0.152,0 -0.308,0.057 -0.468,0.171 -0.16,0.114 -0.24,0.323 -0.24,0.626 v 14.777 c 0,0.303 0.08,0.512 0.24,0.626 0.16,0.114 0.316,0.171 0.468,0.171 h 7.552 c 0.06,0 0.115,-0.015 0.165,-0.044 0.05,-0.03 0.093,-0.074 0.126,-0.133 0.035,-0.059 0.06,-0.133 0.077,-0.221 0.016,-0.089 0.025,-0.192 0.025,-0.311 0,-0.109 -0.009,-0.207 -0.025,-0.291 -0.017,-0.084 -0.042,-0.153 -0.077,-0.209 -0.033,-0.054 -0.076,-0.096 -0.126,-0.126 -0.05,-0.029 -0.105,-0.044 -0.165,-0.044 h -6.717 v -5.756 h 5.795 c 0.067,0 0.126,-0.015 0.176,-0.045 0.051,-0.029 0.093,-0.071 0.126,-0.126 0.035,-0.055 0.06,-0.127 0.076,-0.215 0.017,-0.089 0.026,-0.192 0.026,-0.311 0,-0.109 -0.009,-0.204 -0.026,-0.284 -0.016,-0.08 -0.041,-0.146 -0.076,-0.196 -0.033,-0.051 -0.075,-0.089 -0.126,-0.114 -0.05,-0.025 -0.109,-0.038 -0.176,-0.038 h -5.795 v -6.528 h 6.832 c 0.058,0 0.113,-0.015 0.164,-0.044 0.051,-0.03 0.094,-0.072 0.133,-0.127 0.038,-0.055 0.065,-0.127 0.082,-0.215 0.017,-0.088 0.025,-0.192 0.025,-0.31"
         style="fill:#0043ff;fill-opacity:1;fill-rule:nonzero;stroke:none"
         id="path1070" /></g></g></svg>
